<svg width="80" height="80" viewBox="0 0 80 80" fill="none" xmlns="http://www.w3.org/2000/svg">
<g id="Frame" clip-path="url(#clip0_1587_19868)">
<g id="Group">
<path id="Vector" d="M45.1613 64.5161H47.7419V69.6774H45.1613V64.5161ZM3.87097 69.6774H6.45161V61.9355H30.9677V59.3548H6.45161V14.1935H45.1613V28.3871H47.7419V13.4374L51.6129 9.56645V4.36387L50.8994 4.00774C50.5716 3.84387 42.6916 0 25.8064 0C8.92129 0 1.04129 3.84387 0.713548 4.00645L0 4.36387V9.56645L3.87097 13.4374V69.6774ZM3.11484 9.03226H19.3548V6.45161H2.58065V6.01032C4.8271 5.11871 12.3935 2.58065 25.8064 2.58065C39.2206 2.58065 46.7897 5.11871 49.0323 6.01032V6.45161H32.2581V9.03226H48.4981L45.9174 11.6129H5.69548L3.11484 9.03226ZM1.29032 80H50.3226V72.2581H1.29032V80ZM3.87097 74.8387H47.7419V77.4193H3.87097V74.8387Z" fill="#606060"/>
<path id="Vector_2" d="M38.7096 28.387V18.0645H12.9032V28.387H38.7096ZM15.4838 20.6451H36.129V25.8064H15.4838V20.6451ZM33.5484 30.9677V61.9354H80V30.9677H33.5484ZM75.5948 33.5483L64.6722 44.4709C62.5625 46.5806 59.7574 47.7419 56.7742 47.7419C53.7909 47.7419 50.9858 46.5806 48.8761 44.4709L37.9535 33.5483H75.5948ZM77.4193 57.5303L68.1135 48.2244L66.289 50.049L75.5948 59.3548H37.9535L47.2593 50.049L45.4348 48.2244L36.129 57.5303V35.3728L47.0516 46.2954C49.649 48.8928 53.1006 50.3225 56.7742 50.3225C60.4477 50.3225 63.8993 48.8928 66.4967 46.2954L77.4193 35.3728V57.5303Z" fill="#606060"/>
</g>
</g>
<defs>
<clipPath id="clip0_1587_19868">
<rect width="80" height="80" fill="white"/>
</clipPath>
</defs>
</svg>
