<svg width="80" height="80" viewBox="0 0 80 80" fill="none" xmlns="http://www.w3.org/2000/svg">
<g id="Frame" clip-path="url(#clip0_1587_19872)">
<g id="Group">
<path id="Vector" d="M78.4 28.8H72V3.2C71.9984 1.4336 70.5664 0.0016 68.8 0H11.2C9.4336 0.0016 8.0016 1.4336 8 3.2V28.8H1.6C1.17565 28.8 0.768687 28.9686 0.468629 29.2686C0.168571 29.5687 0 29.9757 0 30.4L0 43.2C0 43.6243 0.168571 44.0313 0.468629 44.3314C0.768687 44.6314 1.17565 44.8 1.6 44.8H8V59.2C8 59.6296 8.1742 60.0414 8.4828 60.3406C8.16884 60.982 8.0038 61.6859 8 62.4V65.6C8.0032 68.25 10.15 70.3968 12.8 70.4V75.2C12.8032 77.85 14.95 79.9968 17.6 80H24C26.65 79.9968 28.7968 77.85 28.8 75.2V70.4H51.2V75.2C51.2032 77.85 53.35 79.9968 56 80H62.4C65.05 79.9968 67.1968 77.85 67.2 75.2V70.4C69.85 70.3968 71.9968 68.25 72 65.6V62.4C71.996 61.686 71.8312 60.982 71.518 60.3406C71.6705 60.1923 71.7917 60.015 71.8745 59.8191C71.9573 59.6232 71.9999 59.4127 72 59.2V44.8H78.4C78.8243 44.8 79.2313 44.6314 79.5314 44.3314C79.8314 44.0313 80 43.6243 80 43.2V30.4C80 29.9757 79.8314 29.5687 79.5314 29.2686C79.2313 28.9686 78.8243 28.8 78.4 28.8ZM67.2 57.6V47.2562L68.8 46.1898V57.6H67.2ZM22.4 57.6V52.8C22.3999 52.3757 22.2313 51.9688 21.9312 51.6688L18.7312 48.4688C18.4312 48.1687 18.0243 48.0001 17.6 48H16V20.8C16.0032 18.15 18.15 16.0032 20.8 16H59.2C61.85 16.0032 63.9968 18.15 64 20.8V48H62.4C61.9757 48.0001 61.5688 48.1687 61.2688 48.4688L58.0688 51.6688C57.7687 51.9688 57.6001 52.3757 57.6 52.8V57.6H22.4ZM11.2 57.6V46.19L12.8 47.2562V57.6H11.2ZM16 51.2H16.9376L19.2 53.4626V57.6H16V51.2ZM60.8 53.4626L63.0626 51.2H64V57.6H60.8V53.4626ZM11.2 3.2H68.8V42.3438L67.2 43.4102V20.8C67.1946 16.3836 63.6164 12.8054 59.2 12.8H20.8C16.3836 12.8054 12.8054 16.3836 12.8 20.8V43.41L11.2 42.3438V3.2ZM3.2 41.6V32H8V41.6H3.2ZM25.6 75.2C25.5995 75.6242 25.4307 76.0308 25.1308 76.3308C24.8308 76.6307 24.4242 76.7995 24 76.8H17.6C17.1758 76.7995 16.7692 76.6307 16.4692 76.3308C16.1693 76.0308 16.0005 75.6242 16 75.2V70.4H25.6V75.2ZM64 75.2C63.9995 75.6242 63.8307 76.0308 63.5308 76.3308C63.2308 76.6307 62.8242 76.7995 62.4 76.8H56C55.5758 76.7995 55.1692 76.6307 54.8692 76.3308C54.5693 76.0308 54.4005 75.6242 54.4 75.2V70.4H64V75.2ZM68.8 65.6C68.7995 66.0242 68.6307 66.4308 68.3308 66.7308C68.0308 67.0307 67.6242 67.1995 67.2 67.2H12.8C12.3758 67.1995 11.9692 67.0307 11.6692 66.7308C11.3693 66.4308 11.2005 66.0242 11.2 65.6V62.4C11.2005 61.9758 11.3693 61.5692 11.6692 61.2692C11.9692 60.9693 12.3758 60.8005 12.8 60.8H67.2C67.6242 60.8005 68.0308 60.9693 68.3308 61.2692C68.6307 61.5692 68.7995 61.9758 68.8 62.4V65.6ZM76.8 41.6H72V32H76.8V41.6Z" fill="#606060"/>
<path id="Vector_2" d="M26.6291 44.7999H53.3711C53.5891 44.7999 53.8041 44.7554 54.0041 44.6696L61.4329 41.4696C61.72 41.3458 61.9646 41.1407 62.1364 40.8795C62.3083 40.6184 62.4 40.3126 62.4001 40V22.4C62.4291 20.6648 61.0493 19.2336 59.3141 19.2H20.6861C18.9509 19.2336 17.5711 20.6648 17.6001 22.4V40C17.6002 40.3126 17.6918 40.6184 17.8637 40.8795C18.0356 41.1407 18.2801 41.3458 18.5673 41.4696L25.9961 44.6696C26.1961 44.7556 26.4111 44.7999 26.6291 44.7999ZM20.6861 22.4H59.2001V38.9467L53.0415 41.5999H48.1283L49.0423 40H53.6001C54.0244 40 54.4314 39.8314 54.7314 39.5313C55.0315 39.2313 55.2001 38.8243 55.2001 38.4C55.2001 37.9756 55.0315 37.5686 54.7314 37.2686C54.4314 36.9685 54.0244 36.7999 53.6001 36.7999H44.0001C43.5757 36.7999 43.1687 36.9685 42.8687 37.2686C42.5686 37.5686 42.4001 37.9756 42.4001 38.4C42.4001 38.8243 42.5686 39.2313 42.8687 39.5313C43.1687 39.8314 43.5757 40 44.0001 40H45.3571L44.4431 41.5999H32.1281L33.0421 40H37.6001C38.0244 40 38.4314 39.8314 38.7314 39.5313C39.0315 39.2313 39.2001 38.8243 39.2001 38.4C39.2001 37.9756 39.0315 37.5686 38.7314 37.2686C38.4314 36.9685 38.0244 36.7999 37.6001 36.7999H28.0001C27.5757 36.7999 27.1687 36.9685 26.8687 37.2686C26.5686 37.5686 26.4001 37.9756 26.4001 38.4C26.4001 38.8243 26.5686 39.2313 26.8687 39.5313C27.1687 39.8314 27.5757 40 28.0001 40H29.3571L28.4431 41.5999H26.9587L20.7931 38.9437L20.6861 22.4ZM35.2001 62.3999H28.8001C28.3757 62.3999 27.9687 62.5685 27.6687 62.8686C27.3686 63.1686 27.2001 63.5756 27.2001 63.9999C27.2001 64.4243 27.3686 64.8313 27.6687 65.1313C27.9687 65.4314 28.3757 65.5999 28.8001 65.5999H35.2001C35.6244 65.5999 36.0314 65.4314 36.3314 65.1313C36.6315 64.8313 36.8001 64.4243 36.8001 63.9999C36.8001 63.5756 36.6315 63.1686 36.3314 62.8686C36.0314 62.5685 35.6244 62.3999 35.2001 62.3999ZM51.2001 62.3999H44.8001C44.3757 62.3999 43.9687 62.5685 43.6687 62.8686C43.3686 63.1686 43.2001 63.5756 43.2001 63.9999C43.2001 64.4243 43.3686 64.8313 43.6687 65.1313C43.9687 65.4314 44.3757 65.5999 44.8001 65.5999H51.2001C51.6244 65.5999 52.0314 65.4314 52.3314 65.1313C52.6315 64.8313 52.8001 64.4243 52.8001 63.9999C52.8001 63.5756 52.6315 63.1686 52.3314 62.8686C52.0314 62.5685 51.6244 62.3999 51.2001 62.3999ZM52.8001 52.7999H27.2001C26.7757 52.7999 26.3687 52.9685 26.0687 53.2686C25.7686 53.5686 25.6001 53.9756 25.6001 54.3999C25.6001 54.8243 25.7686 55.2313 26.0687 55.5313C26.3687 55.8314 26.7757 56 27.2001 56H52.8001C53.2244 56 53.6314 55.8314 53.9314 55.5313C54.2315 55.2313 54.4001 54.8243 54.4001 54.3999C54.4001 53.9756 54.2315 53.5686 53.9314 53.2686C53.6314 52.9685 53.2244 52.7999 52.8001 52.7999ZM52.8001 48H27.2001C26.7757 48 26.3687 48.1685 26.0687 48.4686C25.7686 48.7686 25.6001 49.1756 25.6001 49.5999C25.6001 50.0243 25.7686 50.4313 26.0687 50.7313C26.3687 51.0314 26.7757 51.1999 27.2001 51.1999H52.8001C53.2244 51.1999 53.6314 51.0314 53.9314 50.7313C54.2315 50.4313 54.4001 50.0243 54.4001 49.5999C54.4001 49.1756 54.2315 48.7686 53.9314 48.4686C53.6314 48.1685 53.2244 48 52.8001 48Z" fill="#606060"/>
</g>
</g>
<defs>
<clipPath id="clip0_1587_19872">
<rect width="80" height="80" fill="white"/>
</clipPath>
</defs>
</svg>
