<svg width="80" height="80" viewBox="0 0 80 80" fill="none" xmlns="http://www.w3.org/2000/svg">
<g id="Frame" clip-path="url(#clip0_1587_19876)">
<g id="Group">
<path id="Vector" d="M11.5625 43.064C11.9733 43.064 12.3766 42.8983 12.6672 42.6079C12.9591 42.3135 13.1235 41.9161 13.125 41.5015C13.125 41.0907 12.9578 40.6874 12.6672 40.3968C12.3766 40.1062 11.9733 39.939 11.5625 39.939C11.1517 39.939 10.7484 40.1062 10.4578 40.3968C10.1659 40.6905 10.0014 41.0874 10 41.5015C10 41.9141 10.1672 42.3171 10.4578 42.608C10.7517 42.8994 11.1486 43.0632 11.5625 43.064Z" fill="#606060"/>
<path id="Vector_2" d="M79.1937 21.445L64.9133 13.5501C64.1583 13.132 63.2073 13.4067 62.7898 14.1617C62.3723 14.9167 62.6466 15.8676 63.4016 16.2851L76.875 23.7337V76.8747H70V27.8122C70 26.9492 69.3005 26.2497 68.4375 26.2497H11.5625C10.6995 26.2497 10 26.9492 10 27.8122V35.2517C10 36.1148 10.6995 36.8142 11.5625 36.8142C12.4255 36.8142 13.125 36.1148 13.125 35.2517V29.3747H66.875V76.8747H60.3327V61.2497C60.3327 59.5267 58.9306 58.1247 57.2077 58.1247H50.9577V42.4997C50.9577 40.7767 49.5556 39.3747 47.8327 39.3747H32.2077C30.4841 39.3747 29.0827 40.7767 29.0827 42.4997V58.1247H22.8125C21.0895 58.1247 19.6875 59.5267 19.6875 61.2497V76.8747H13.125V47.7517C13.125 46.8887 12.4255 46.1892 11.5625 46.1892C10.6995 46.1892 10 46.8887 10 47.7517V76.8747H3.125V23.7337L40 3.34749L52.4616 10.2372C53.2166 10.6545 54.1675 10.3806 54.585 9.62545C55.0025 8.8703 54.7284 7.91967 53.9734 7.50202L40.7562 0.194986C40.5248 0.0667767 40.2646 -0.000488281 40 -0.000488281C39.7354 -0.000488281 39.4752 0.0667767 39.2438 0.194986L0.80625 21.445C0.561917 21.58 0.358247 21.778 0.216447 22.0185C0.0746471 22.2589 -9.62359e-05 22.533 9.29934e-08 22.8122V78.4372C9.29934e-08 79.3001 0.699531 79.9997 1.5625 79.9997H78.4375C79.3005 79.9997 80 79.3001 80 78.4372V22.8122C80.0001 22.533 79.9254 22.2589 79.7836 22.0185C79.6418 21.778 79.4381 21.58 79.1937 21.445ZM47.8327 61.2497H50.9577V64.3747H47.8327V61.2497ZM41.5625 42.4997V45.6247H38.4375V42.4997H41.5625ZM32.2077 42.4997H35.3125V47.1872C35.3125 48.0501 36.012 48.7497 36.875 48.7497H43.125C43.988 48.7497 44.6875 48.0501 44.6875 47.1872V42.4997H47.8327L47.8345 58.1247H32.2077V42.4997ZM32.2077 61.2497V64.3747H29.0827V61.2497H32.2077ZM22.8125 76.8747V61.2497H25.9577V65.9372C25.9577 66.8001 26.657 67.4997 27.5202 67.4997H33.7702C34.6327 67.4997 35.3327 66.8001 35.3327 65.9372V61.2497H38.4375L38.4394 76.8747H38.4375H22.8125ZM41.5827 76.8747V61.2497H44.7077V65.9372C44.7077 66.8001 45.407 67.4997 46.2702 67.4997H52.5202C53.3827 67.4997 54.0827 66.8001 54.0827 65.9372V61.2497H57.2077L57.2095 76.8747H57.2077H41.5827Z" fill="#606060"/>
<path id="Vector_3" d="M58.6878 13.4564C59.0984 13.4564 59.5014 13.2892 59.7925 12.9986C60.0843 12.7048 60.2487 12.308 60.2503 11.8939C60.2503 11.4825 60.0831 11.0798 59.7925 10.7892C59.4987 10.4974 59.1019 10.333 58.6878 10.3314C58.2764 10.3314 57.8736 10.4986 57.5831 10.7892C57.2927 11.0798 57.1253 11.4825 57.1253 11.8939C57.1253 12.3047 57.2925 12.7075 57.5831 12.9986C57.8768 13.2906 58.2737 13.4551 58.6878 13.4564ZM33.4375 15.9375C33.4375 19.5562 36.3812 22.5 40 22.5C43.6187 22.5 46.5625 19.5562 46.5625 15.9375C46.5625 12.3187 43.6187 9.375 40 9.375C36.3812 9.375 33.4375 12.3187 33.4375 15.9375ZM43.4375 15.9375C43.4375 17.8327 41.8958 19.375 40 19.375C38.1042 19.375 36.5625 17.8327 36.5625 15.9375C36.5625 14.0417 38.1042 12.5 40 12.5C41.8958 12.5 43.4375 14.0417 43.4375 15.9375Z" fill="#606060"/>
</g>
</g>
<defs>
<clipPath id="clip0_1587_19876">
<rect width="80" height="80" fill="white"/>
</clipPath>
</defs>
</svg>
