<svg width="80" height="80" viewBox="0 0 80 80" fill="none" xmlns="http://www.w3.org/2000/svg">
<g id="Frame">
<g id="Group">
<path id="Vector" d="M77.5 28.75H42.5C41.75 28.75 41.25 29.25 41.25 30V38.375L38.125 37.625L34.75 34.25C38.5 30.75 38.75 23.375 38.75 21.25C43.375 21.25 46.625 20 47.875 17.75C48.375 16.75 48.75 15.125 47.375 13C46 11 44.25 10 41.875 10H37.375C37 7.75 35.5 3 29.625 1.625C28.375 1.375 26.625 1.25 26.25 1.25C13.25 1.25 11.25 7.5 11.25 11.25V17.5C11.25 18.375 11.625 19.375 12.375 20.125C11.75 20.875 11.25 22.125 11.25 23.75C11.25 26.875 13.375 28.25 15.25 28.625C15.875 30.5 16.75 31.875 17.625 33L13 37.625C12 38.75 13.25 39.875 13.25 39.875L7.875 45.25C7.375 45.875 2.5 50.875 2.5 55C2.5 55.25 2.5 55.375 2.625 55.5L8.875 68C9 68.375 9.375 68.5 9.625 68.625C9.75 68.625 10.875 69 12.5 69C12.5 69.125 12.375 76.125 12.375 76.125C12.375 76.875 12.875 77.375 13.625 77.375C14.375 77.375 14.875 76.875 14.875 76.125V72.625C16.75 74.875 19.75 77.375 23.625 77.375C27.5 77.375 34.625 74.875 40.875 72.625C42 72.25 43 71.875 44 71.5C44.25 71.375 44.5 71.375 44.875 71.25V76.25C44.875 77 45.375 77.5 46.125 77.5C46.875 77.5 47.375 77 47.375 76.25V70.625C49.625 70.125 51.75 69.875 53.625 70H62.375C64.5 70 67.375 69.25 68.25 67C68.5 66.375 68.625 65.75 68.625 65H77.375C78.125 65 78.625 64.5 78.625 63.75V30C78.75 29.25 78.25 28.75 77.5 28.75ZM63.75 31.25V38L60.5 36.375C60.375 36.25 60.25 36.25 60 36.25C59.75 36.25 59.625 36.25 59.5 36.375L56.25 38V31.25H63.75ZM27.25 38.125C27.125 37.875 26.5 37.5 26.5 37.5C28 37.5 29.25 37.25 30.5 36.875L30 38.375L28.75 41.625C28.75 41.625 27.375 38.125 27.25 38.125ZM33.375 36.375L36 39L34.75 41.375L32.625 38.5L33.375 36.375ZM35.625 12.5C34.5 13.375 33.5 14.5 32.75 15.5C30.625 18.625 28.75 18.75 28.75 18.75H22.125C22.625 18.25 23.125 17.625 23.5 17C25 14.75 27.75 12.5 30 12.5H35.625ZM45.25 14.5C45.875 15.375 46 16.125 45.625 16.625C45.125 17.625 43 18.75 38.75 18.75H38.625C38.375 16.5 38 14.875 37.75 14C39.125 13.125 40.5 12.5 41.875 12.5C43.25 12.5 44.375 13.125 45.25 14.5ZM13.75 11.25C13.75 6.75 17.375 4.875 21.5 4.125C19.375 6.375 18.75 9.25 18.75 11.25C18.75 12 19.25 12.5 20 12.5C20.625 12.5 21.25 12 21.25 11.25C21.25 10.5 21.5 4.5 27.625 3.875C33 4.375 34.5 8.125 34.875 10H30C26.625 10 23.25 12.75 21.5 15.5C19.375 18.625 17.5 18.75 17.5 18.75H15C14 18.75 13.75 18.125 13.75 17.5V11.25ZM16.25 26.25C15.875 26.25 13.75 26.125 13.75 23.75C13.75 21.5 14.75 21.25 15 21.25H28.75C29.125 21.25 32 21.125 34.75 17C35 16.625 35.25 16.25 35.625 15.875C35.875 17 36.25 18.875 36.25 21.375C36.25 21.5 36.75 28.375 33.125 32.375C31.5 34.125 29.125 35 26.25 35C26.125 35 19.625 34.875 17.5 27.125C17.25 26.625 16.75 26.25 16.25 26.25ZM18.875 35.375L24.375 39L21 43.25L15.5 38.75L18.875 35.375ZM5 54.75C5.25 52.125 8.375 48.375 9.625 47.125L15.125 41.625L20.375 46C20.625 46.25 20.875 46.25 21.125 46.25H21.25C21.625 46.25 21.875 46 22.125 45.75L25.75 41.125L27.5 45.375C27.75 45.875 28.125 46.125 28.625 46.125C29.125 46.125 29.625 45.875 29.75 45.375L31.375 41.25L33.75 44.5C34 44.875 34.375 45 34.875 45C35.25 45 35.625 44.75 35.875 44.375L37.875 40.25L41 41V60.875C39.125 61.5 36.875 62.25 34.5 63C32.625 63.625 30.75 64.25 29 64.875C26.875 65.625 24.375 64.75 23.25 62.75L18.375 54.375C18 53.75 17.25 53.625 16.625 54C16 54.375 15.875 55.125 16.25 55.75L19.75 61.5C17.75 67.375 12.375 66.875 10.75 66.5L5 54.75ZM66 66C65.625 67 63.875 67.5 62.5 67.5H53.875C49.75 67.25 45.5 68.5 43.375 69.25C42.375 69.625 41.25 70 40.25 70.375C34.375 72.375 27.25 75 23.75 75C19.375 75 16.25 70.5 15.25 68.875C17.375 68.375 19.75 67.25 21.5 64.25C22.875 66.375 25.25 67.625 27.75 67.625C28.5 67.625 29.25 67.5 30 67.25C31.625 66.75 33.5 66.125 35.5 65.375C41 63.5 47.75 61.25 49.5 61.25H58.25C58.625 61.25 59.375 61.5 59.5 62.5H56.25C55.5 62.5 55 63 55 63.75C55 64.5 55.5 65 56.25 65C56.25 65 65.75 65.125 66.25 65.125C66.25 65.375 66.125 65.75 66 66ZM76.25 62.5H62C61.875 59.75 59.75 58.75 58.25 58.75H49.5C48.375 58.75 46.5 59.25 43.75 60V31.25H53.75V40C53.75 40.375 54 40.875 54.375 41.125C54.75 41.375 55.25 41.375 55.625 41.125L60.125 38.875L64.625 41.125C64.625 41.25 64.75 41.25 65 41.25C65.25 41.25 65.5 41.25 65.625 41.125C66 40.875 66.25 40.5 66.25 40V31.25H76.25V62.5Z" fill="#606060"/>
<path id="Vector_2" d="M53.75 53.75H48.75C48 53.75 47.5 54.25 47.5 55C47.5 55.75 48 56.25 48.75 56.25H53.75C54.5 56.25 55 55.75 55 55C55 54.25 54.5 53.75 53.75 53.75ZM48.75 52.5H51.25C52 52.5 52.5 52 52.5 51.25C52.5 50.5 52 50 51.25 50H48.75C48 50 47.5 50.5 47.5 51.25C47.5 52 48 52.5 48.75 52.5Z" fill="#606060"/>
</g>
</g>
</svg>
