<svg width="80" height="80" viewBox="0 0 80 80" fill="none" xmlns="http://www.w3.org/2000/svg">
<g id="Frame">
<g id="Group">
<path id="Vector" d="M75.0562 77.3034H72.8091V6.74156C72.8091 6.38398 72.667 6.04104 72.4142 5.78818C72.1613 5.53533 71.8184 5.39328 71.4608 5.39328H46.2922C46.1151 5.39326 45.9398 5.42812 45.7762 5.49587C45.6126 5.56362 45.464 5.66293 45.3388 5.78814C45.2136 5.91334 45.1142 6.06198 45.0465 6.22557C44.9787 6.38916 44.9439 6.5645 44.9439 6.74156V12.5842H42.2473V6.74156C42.2473 6.38398 42.1053 6.04104 41.8524 5.78818C41.5996 5.53533 41.2566 5.39328 40.8991 5.39328H35.0562V1.34828C35.0562 0.603437 34.4525 0 33.708 0C32.9634 0 32.3597 0.603437 32.3597 1.34828V5.39328H26.517C26.34 5.39326 26.1646 5.42812 26.001 5.49587C25.8374 5.56362 25.6888 5.66293 25.5636 5.78814C25.4384 5.91334 25.3391 6.06198 25.2713 6.22557C25.2036 6.38916 25.1687 6.5645 25.1687 6.74156V12.5842H21.1237C20.9467 12.5842 20.7713 12.6191 20.6078 12.6868C20.4442 12.7546 20.2955 12.8539 20.1703 12.9791C20.0451 13.1043 19.9458 13.2529 19.878 13.4165C19.8103 13.5801 19.7754 13.7554 19.7755 13.9325V25.1684H8.53952C8.36246 25.1684 8.18712 25.2033 8.02353 25.271C7.85994 25.3388 7.7113 25.4381 7.5861 25.5633C7.46089 25.6885 7.36158 25.8371 7.29383 26.0007C7.22608 26.1643 7.19122 26.3397 7.19124 26.5167V77.3033H4.94374C4.19905 77.3033 3.59546 77.9067 3.59546 78.6516C3.59546 79.3964 4.19921 80 4.94374 80H75.0562C75.8009 80 76.4045 79.3966 76.4045 78.6517C76.4045 77.9069 75.8008 77.3034 75.0562 77.3034ZM27.8651 8.08984H39.5505V12.5842H27.8651V8.08984ZM23.3708 77.3034H22.4719V75.0562C22.4719 74.3114 21.8681 73.708 21.1236 73.708C20.3791 73.708 19.7753 74.3114 19.7753 75.0562V77.3034H18.8764V72.8091H23.3708V77.3034ZM32.3595 42.6966V77.3034H26.0673V71.4608C26.0673 71.1032 25.9253 70.7603 25.6724 70.5074C25.4196 70.2545 25.0766 70.1125 24.7191 70.1125H17.5281C17.3511 70.1125 17.1757 70.1473 17.0121 70.2151C16.8485 70.2828 16.6999 70.3821 16.5747 70.5074C16.4495 70.6326 16.3502 70.7812 16.2824 70.9448C16.2147 71.1084 16.1798 71.2837 16.1798 71.4608V77.3034H9.88765V27.8652H32.3595V42.6966ZM33.7078 25.1686H22.4719V15.2809H44.9437V41.3483H35.0562V36.8539H39.1012C39.8459 36.8539 40.4495 36.2505 40.4495 35.5056C40.4495 34.7608 39.8458 34.1573 39.1012 34.1573H35.0562V29.663H39.1012C39.8459 29.663 40.4495 29.0595 40.4495 28.3147C40.4495 27.5698 39.8458 26.9664 39.1012 26.9664H35.0562V26.517C35.0563 26.3399 35.0214 26.1646 34.9536 26.001C34.8859 25.8374 34.7866 25.6887 34.6613 25.5635C34.5361 25.4383 34.3875 25.339 34.2239 25.2712C34.0602 25.2034 33.8849 25.1686 33.7078 25.1686ZM57.5281 77.3034H35.0562V44.045H57.5281V77.3034ZM70.1123 77.3034H60.2247V40.8988C60.2247 40.1539 59.6209 39.5505 58.8764 39.5505C58.1319 39.5505 57.5281 40.1539 57.5281 40.8988V41.3481H54.8316V40.8988C54.8316 40.1539 54.2278 39.5505 53.4833 39.5505C52.7387 39.5505 52.135 40.1539 52.135 40.8988V41.3481H47.6406V8.08984H70.1125V77.3034H70.1123Z" fill="#606060"/>
<path id="Vector_2" d="M40.899 74.6071C41.2565 74.6071 41.5994 74.465 41.8523 74.2122C42.1051 73.9593 42.2472 73.6164 42.2472 73.2588V48.0904C42.2472 47.3456 41.6435 46.7421 40.899 46.7421C40.1544 46.7421 39.5507 47.3456 39.5507 48.0904V73.259C39.5507 73.4361 39.5855 73.6114 39.6533 73.7749C39.7211 73.9385 39.8204 74.0871 39.9456 74.2123C40.0708 74.3375 40.2194 74.4368 40.383 74.5046C40.5466 74.5723 40.7219 74.6071 40.899 74.6071ZM46.2922 74.6071C46.6498 74.6071 46.9927 74.465 47.2456 74.2122C47.4984 73.9593 47.6405 73.6164 47.6405 73.2588V48.0904C47.6405 47.3456 47.0368 46.7421 46.2922 46.7421C45.5477 46.7421 44.944 47.3456 44.944 48.0904V73.259C44.944 73.4361 44.9788 73.6114 45.0466 73.7749C45.1143 73.9385 45.2137 74.0871 45.3389 74.2123C45.4641 74.3375 45.6127 74.4368 45.7763 74.5046C45.9399 74.5723 46.1152 74.6071 46.2922 74.6071ZM51.6854 74.6071C52.0429 74.6071 52.3858 74.465 52.6387 74.2122C52.8915 73.9593 53.0336 73.6164 53.0336 73.2588V48.0904C53.0336 47.3456 52.4299 46.7421 51.6854 46.7421C50.9408 46.7421 50.3371 47.3456 50.3371 48.0904V73.259C50.3371 73.6166 50.4792 73.9595 50.732 74.2123C50.9849 74.4651 51.3278 74.6071 51.6854 74.6071ZM53.4832 17.0787C53.6602 17.0787 53.8356 17.0439 53.9992 16.9761C54.1628 16.9084 54.3114 16.809 54.4366 16.6838C54.5618 16.5586 54.6611 16.41 54.7289 16.2464C54.7966 16.0828 54.8315 15.9075 54.8314 15.7304V13.9328C54.8314 13.1879 54.2277 12.5845 53.4832 12.5845C52.7386 12.5845 52.1349 13.1879 52.1349 13.9328V15.7306C52.1349 15.9076 52.1698 16.0829 52.2375 16.2465C52.3053 16.4101 52.4046 16.5587 52.5298 16.6839C52.655 16.8091 52.8036 16.9084 52.9672 16.9761C53.1308 17.0439 53.3061 17.0787 53.4832 17.0787ZM58.8764 17.0787C59.0535 17.0787 59.2289 17.0439 59.3924 16.9761C59.556 16.9084 59.7047 16.809 59.8299 16.6838C59.9551 16.5586 60.0544 16.41 60.1221 16.2464C60.1899 16.0828 60.2248 15.9075 60.2247 15.7304V13.9328C60.2247 13.1879 59.621 12.5845 58.8764 12.5845C58.1319 12.5845 57.5282 13.1879 57.5282 13.9328V15.7306C57.5282 15.9076 57.563 16.0829 57.6308 16.2465C57.6986 16.4101 57.7979 16.5587 57.9231 16.6839C58.0483 16.8091 58.1969 16.9084 58.3605 16.9761C58.5241 17.0439 58.6994 17.0787 58.8764 17.0787ZM64.2697 17.0787C64.4468 17.0787 64.6221 17.0439 64.7857 16.9761C64.9493 16.9084 65.098 16.809 65.2232 16.6838C65.3484 16.5586 65.4477 16.41 65.5154 16.2464C65.5832 16.0828 65.618 15.9075 65.618 15.7304V13.9328C65.618 13.1879 65.0143 12.5845 64.2697 12.5845C63.5252 12.5845 62.9214 13.1879 62.9214 13.9328V15.7306C62.9214 15.9076 62.9563 16.0829 63.0241 16.2465C63.0918 16.4101 63.1912 16.5587 63.3164 16.6839C63.4416 16.8091 63.5902 16.9084 63.7538 16.9761C63.9174 17.0439 64.0927 17.0787 64.2697 17.0787ZM53.4832 26.0674C53.6602 26.0675 53.8356 26.0326 53.9992 25.9649C54.1628 25.8971 54.3114 25.7978 54.4366 25.6726C54.5618 25.5474 54.6611 25.3987 54.7289 25.2351C54.7966 25.0716 54.8315 24.8962 54.8314 24.7192V22.9213C54.8314 22.1765 54.2277 21.5731 53.4832 21.5731C52.7386 21.5731 52.1349 22.1765 52.1349 22.9213V24.7192C52.1349 24.8962 52.1697 25.0716 52.2375 25.2351C52.3052 25.3987 52.4045 25.5474 52.5297 25.6726C52.655 25.7978 52.8036 25.8971 52.9672 25.9649C53.1308 26.0326 53.3061 26.0675 53.4832 26.0674ZM58.8764 26.0674C59.0535 26.0675 59.2289 26.0326 59.3924 25.9649C59.556 25.8971 59.7047 25.7978 59.8299 25.6726C59.9551 25.5474 60.0544 25.3987 60.1221 25.2351C60.1899 25.0716 60.2248 24.8962 60.2247 24.7192V22.9213C60.2247 22.1765 59.621 21.5731 58.8764 21.5731C58.1319 21.5731 57.5282 22.1765 57.5282 22.9213V24.7192C57.5282 24.8962 57.563 25.0716 57.6308 25.2351C57.6985 25.3987 57.7978 25.5474 57.923 25.6726C58.0482 25.7978 58.1969 25.8971 58.3605 25.9649C58.5241 26.0326 58.6994 26.0675 58.8764 26.0674ZM64.2697 26.0674C64.4468 26.0675 64.6221 26.0326 64.7857 25.9649C64.9493 25.8971 65.098 25.7978 65.2232 25.6726C65.3484 25.5474 65.4477 25.3987 65.5154 25.2351C65.5832 25.0716 65.618 24.8962 65.618 24.7192V22.9213C65.618 22.1765 65.0143 21.5731 64.2697 21.5731C63.5252 21.5731 62.9214 22.1765 62.9214 22.9213V24.7192C62.9214 24.8962 62.9563 25.0716 63.024 25.2351C63.0918 25.3987 63.1911 25.5474 63.3163 25.6726C63.4415 25.7978 63.5902 25.8971 63.7537 25.9649C63.9173 26.0326 64.0927 26.0675 64.2697 26.0674ZM53.4832 35.0563C53.6602 35.0564 53.8356 35.0215 53.9992 34.9538C54.1628 34.886 54.3114 34.7867 54.4366 34.6615C54.5618 34.5363 54.6611 34.3876 54.7289 34.2241C54.7966 34.0605 54.8315 33.8851 54.8314 33.7081V31.9103C54.8314 31.1654 54.2277 30.562 53.4832 30.562C52.7386 30.562 52.1349 31.1654 52.1349 31.9103V33.7081C52.1349 34.0657 52.2769 34.4086 52.5298 34.6614C52.7826 34.9143 53.1256 35.0563 53.4832 35.0563ZM58.8764 35.0563C59.0535 35.0564 59.2289 35.0215 59.3924 34.9538C59.556 34.886 59.7047 34.7867 59.8299 34.6615C59.9551 34.5363 60.0544 34.3876 60.1221 34.2241C60.1899 34.0605 60.2248 33.8851 60.2247 33.7081V31.9103C60.2247 31.1654 59.621 30.562 58.8764 30.562C58.1319 30.562 57.5282 31.1654 57.5282 31.9103V33.7081C57.5282 34.0657 57.6702 34.4086 57.9231 34.6614C58.1759 34.9143 58.5189 35.0563 58.8764 35.0563ZM64.2697 35.0563C64.4468 35.0564 64.6221 35.0215 64.7857 34.9538C64.9493 34.886 65.098 34.7867 65.2232 34.6615C65.3484 34.5363 65.4477 34.3876 65.5154 34.2241C65.5832 34.0605 65.618 33.8851 65.618 33.7081V31.9103C65.618 31.1654 65.0143 30.562 64.2697 30.562C63.5252 30.562 62.9214 31.1654 62.9214 31.9103V33.7081C62.9214 34.0657 63.0635 34.4086 63.3164 34.6614C63.5692 34.9143 63.9121 35.0563 64.2697 35.0563ZM15.7304 38.6518C15.9074 38.6518 16.0828 38.617 16.2464 38.5492C16.4099 38.4815 16.5586 38.3822 16.6838 38.257C16.809 38.1318 16.9083 37.9831 16.9761 37.8195C17.0438 37.6559 17.0787 37.4806 17.0786 37.3035V35.5057C17.0786 34.7609 16.4749 34.1574 15.7304 34.1574C14.9858 34.1574 14.3821 34.7609 14.3821 35.5057V37.3035C14.3821 37.6611 14.5242 38.004 14.777 38.2569C15.0299 38.5097 15.3728 38.6518 15.7304 38.6518ZM21.1236 38.6518C21.3007 38.6518 21.476 38.617 21.6396 38.5492C21.8032 38.4815 21.9519 38.3822 22.0771 38.257C22.2023 38.1318 22.3016 37.9831 22.3693 37.8195C22.4371 37.6559 22.4719 37.4806 22.4719 37.3035V35.5057C22.4719 34.7609 21.8682 34.1574 21.1236 34.1574C20.3791 34.1574 19.7754 34.7609 19.7754 35.5057V37.3035C19.7754 37.6611 19.9174 38.0041 20.1703 38.2569C20.4231 38.5098 20.7661 38.6518 21.1236 38.6518ZM26.5169 38.6518C26.694 38.6518 26.8693 38.617 27.0329 38.5492C27.1965 38.4815 27.3451 38.3822 27.4703 38.257C27.5956 38.1318 27.6949 37.9831 27.7626 37.8195C27.8304 37.6559 27.8652 37.4806 27.8652 37.3035V35.5057C27.8652 34.7609 27.2615 34.1574 26.5169 34.1574C25.7724 34.1574 25.1686 34.7609 25.1686 35.5057V37.3035C25.1686 37.6611 25.3107 38.0041 25.5635 38.2569C25.8164 38.5098 26.1593 38.6518 26.5169 38.6518ZM15.7304 47.6406C15.9074 47.6406 16.0828 47.6057 16.2464 47.538C16.4099 47.4702 16.5586 47.3709 16.6838 47.2457C16.809 47.1205 16.9083 46.9719 16.9761 46.8083C17.0438 46.6447 17.0787 46.4693 17.0786 46.2923V44.4945C17.0786 43.7496 16.4749 43.1462 15.7304 43.1462C14.9858 43.1462 14.3821 43.7496 14.3821 44.4945V46.2923C14.3821 46.6499 14.5242 46.9928 14.777 47.2456C15.0299 47.4985 15.3728 47.6405 15.7304 47.6406ZM21.1236 47.6406C21.3007 47.6406 21.476 47.6057 21.6396 47.538C21.8032 47.4702 21.9519 47.3709 22.0771 47.2457C22.2023 47.1205 22.3016 46.9719 22.3693 46.8083C22.4371 46.6447 22.4719 46.4693 22.4719 46.2923V44.4945C22.4719 43.7496 21.8682 43.1462 21.1236 43.1462C20.3791 43.1462 19.7754 43.7496 19.7754 44.4945V46.2923C19.7754 46.6499 19.9174 46.9928 20.1703 47.2457C20.4231 47.4985 20.7661 47.6406 21.1236 47.6406ZM26.5169 47.6406C26.694 47.6406 26.8693 47.6057 27.0329 47.538C27.1965 47.4702 27.3451 47.3709 27.4703 47.2457C27.5956 47.1205 27.6949 46.9719 27.7626 46.8083C27.8304 46.6447 27.8652 46.4693 27.8652 46.2923V44.4945C27.8652 43.7496 27.2615 43.1462 26.5169 43.1462C25.7724 43.1462 25.1686 43.7496 25.1686 44.4945V46.2923C25.1686 46.6499 25.3107 46.9928 25.5635 47.2457C25.8164 47.4985 26.1593 47.6406 26.5169 47.6406ZM15.7304 56.6293C15.9074 56.6293 16.0828 56.5945 16.2464 56.5267C16.4099 56.459 16.5586 56.3597 16.6838 56.2345C16.809 56.1093 16.9083 55.9606 16.9761 55.797C17.0438 55.6334 17.0787 55.4581 17.0786 55.281V53.4832C17.0786 52.7384 16.4749 52.1349 15.7304 52.1349C14.9858 52.1349 14.3821 52.7384 14.3821 53.4832V55.281C14.3821 55.4581 14.417 55.6334 14.4847 55.797C14.5525 55.9606 14.6518 56.1092 14.777 56.2344C14.9022 56.3596 15.0508 56.4589 15.2144 56.5267C15.378 56.5944 15.5533 56.6293 15.7304 56.6293ZM21.1236 56.6293C21.3007 56.6293 21.476 56.5945 21.6396 56.5267C21.8032 56.459 21.9519 56.3597 22.0771 56.2345C22.2023 56.1093 22.3016 55.9606 22.3693 55.797C22.4371 55.6334 22.4719 55.4581 22.4719 55.281V53.4832C22.4719 52.7384 21.8682 52.1349 21.1236 52.1349C20.3791 52.1349 19.7754 52.7384 19.7754 53.4832V55.281C19.7753 55.4581 19.8102 55.6334 19.878 55.797C19.9457 55.9606 20.045 56.1093 20.1702 56.2345C20.2954 56.3597 20.4441 56.459 20.6077 56.5267C20.7712 56.5945 20.9466 56.6293 21.1236 56.6293ZM26.5169 56.6293C26.694 56.6293 26.8693 56.5945 27.0329 56.5267C27.1965 56.459 27.3451 56.3597 27.4703 56.2345C27.5956 56.1093 27.6949 55.9606 27.7626 55.797C27.8304 55.6334 27.8652 55.4581 27.8652 55.281V53.4832C27.8652 52.7384 27.2615 52.1349 26.5169 52.1349C25.7724 52.1349 25.1686 52.7384 25.1686 53.4832V55.281C25.1686 55.4581 25.2035 55.6334 25.2712 55.797C25.339 55.9606 25.4383 56.1093 25.5635 56.2345C25.6887 56.3597 25.8373 56.459 26.0009 56.5267C26.1645 56.5945 26.3399 56.6293 26.5169 56.6293ZM15.7304 65.6181C15.9074 65.6181 16.0828 65.5832 16.2464 65.5155C16.4099 65.4477 16.5586 65.3484 16.6838 65.2232C16.809 65.098 16.9083 64.9494 16.9761 64.7858C17.0438 64.6222 17.0787 64.4468 17.0786 64.2698V62.472C17.0786 61.7271 16.4749 61.1237 15.7304 61.1237C14.9858 61.1237 14.3821 61.7271 14.3821 62.472V64.2698C14.3821 64.6274 14.5241 64.9703 14.777 65.2232C15.0298 65.476 15.3728 65.6181 15.7304 65.6181ZM21.1236 65.6181C21.3007 65.6181 21.476 65.5832 21.6396 65.5155C21.8032 65.4477 21.9519 65.3484 22.0771 65.2232C22.2023 65.098 22.3016 64.9494 22.3693 64.7858C22.4371 64.6222 22.4719 64.4468 22.4719 64.2698V62.472C22.4719 61.7271 21.8682 61.1237 21.1236 61.1237C20.3791 61.1237 19.7754 61.7271 19.7754 62.472V64.2698C19.7753 64.4468 19.8102 64.6222 19.878 64.7858C19.9457 64.9494 20.045 65.098 20.1702 65.2232C20.2954 65.3484 20.4441 65.4477 20.6077 65.5155C20.7712 65.5832 20.9466 65.6181 21.1236 65.6181ZM26.5169 65.6181C26.694 65.6181 26.8693 65.5832 27.0329 65.5155C27.1965 65.4477 27.3451 65.3484 27.4703 65.2232C27.5956 65.098 27.6949 64.9494 27.7626 64.7858C27.8304 64.6222 27.8652 64.4468 27.8652 64.2698V62.472C27.8652 61.7271 27.2615 61.1237 26.5169 61.1237C25.7724 61.1237 25.1686 61.7271 25.1686 62.472V64.2698C25.1686 64.4468 25.2035 64.6222 25.2712 64.7858C25.339 64.9494 25.4383 65.098 25.5635 65.2232C25.6887 65.3484 25.8373 65.4477 26.0009 65.5155C26.1645 65.5832 26.3399 65.6181 26.5169 65.6181ZM64.2697 44.0451C64.4468 44.0451 64.6221 44.0103 64.7857 43.9425C64.9493 43.8748 65.098 43.7754 65.2232 43.6502C65.3484 43.525 65.4477 43.3764 65.5154 43.2128C65.5832 43.0492 65.618 42.8739 65.618 42.6968V40.899C65.618 40.1542 65.0143 39.5507 64.2697 39.5507C63.5252 39.5507 62.9214 40.1542 62.9214 40.899V42.6968C62.9214 43.0544 63.0635 43.3973 63.3164 43.6502C63.5692 43.903 63.9121 44.0451 64.2697 44.0451ZM64.2697 53.0338C64.4468 53.0339 64.6221 52.999 64.7857 52.9313C64.9493 52.8635 65.098 52.7642 65.2232 52.639C65.3484 52.5138 65.4477 52.3651 65.5154 52.2016C65.5832 52.038 65.618 51.8626 65.618 51.6856V49.8878C65.618 49.1429 65.0143 48.5395 64.2697 48.5395C63.5252 48.5395 62.9214 49.1429 62.9214 49.8878V51.6856C62.9214 52.0431 63.0635 52.3861 63.3164 52.6389C63.5692 52.8918 63.9121 53.0338 64.2697 53.0338ZM64.2697 62.0226C64.4468 62.0226 64.6221 61.9878 64.7857 61.92C64.9493 61.8523 65.098 61.7529 65.2232 61.6277C65.3484 61.5025 65.4477 61.3539 65.5154 61.1903C65.5832 61.0267 65.618 60.8514 65.618 60.6743V58.8765C65.618 58.1317 65.0143 57.5282 64.2697 57.5282C63.5252 57.5282 62.9214 58.1317 62.9214 58.8765V60.6743C62.9214 60.8514 62.9563 61.0267 63.0241 61.1903C63.0918 61.3539 63.1912 61.5025 63.3164 61.6277C63.4416 61.7529 63.5902 61.8522 63.7538 61.92C63.9173 61.9877 64.0927 62.0226 64.2697 62.0226ZM64.2697 71.0113C64.4468 71.0114 64.6221 70.9765 64.7857 70.9088C64.9493 70.841 65.098 70.7417 65.2232 70.6165C65.3484 70.4913 65.4477 70.3426 65.5154 70.1791C65.5832 70.0155 65.618 69.8401 65.618 69.6631V67.8653C65.618 67.1204 65.0143 66.517 64.2697 66.517C63.5252 66.517 62.9214 67.1204 62.9214 67.8653V69.6631C62.9214 70.0206 63.0635 70.3636 63.3164 70.6164C63.5692 70.8693 63.9121 71.0113 64.2697 71.0113ZM40.4494 21.1237C40.4494 20.7661 40.3074 20.4232 40.0545 20.1703C39.8017 19.9175 39.4587 19.7754 39.1011 19.7754H28.3146C28.1375 19.7754 27.9622 19.8102 27.7986 19.878C27.635 19.9457 27.4864 20.0451 27.3612 20.1703C27.236 20.2955 27.1366 20.4441 27.0689 20.6077C27.0011 20.7713 26.9663 20.9466 26.9663 21.1237C26.9663 21.4813 27.1083 21.8242 27.3612 22.0771C27.6141 22.3299 27.957 22.472 28.3146 22.472H39.1011C39.2782 22.472 39.4535 22.4371 39.6171 22.3694C39.7807 22.3016 39.9294 22.2023 40.0546 22.0771C40.1798 21.9519 40.2791 21.8033 40.3468 21.6397C40.4146 21.4761 40.4494 21.3008 40.4494 21.1237Z" fill="#606060"/>
</g>
</g>
</svg>
