<svg width="97" height="64" viewBox="0 0 97 64" fill="none" xmlns="http://www.w3.org/2000/svg">
<g id="Group">
<path id="Vector" d="M96.4022 28.6213L82.0329 1.8178C81.7363 1.26713 81.2959 0.807233 80.7585 0.487117C80.2211 0.167 79.607 -0.00134824 78.9815 9.56341e-06C78.4142 0.000846097 77.8557 0.140845 77.355 0.407732L68.3486 5.23431C67.9484 5.44794 67.5945 5.7388 67.3074 6.09006C67.0203 6.44132 66.8057 6.84602 66.676 7.28074C66.543 7.71441 66.4974 8.17017 66.5419 8.62159C66.5864 9.07301 66.72 9.51112 66.9351 9.91049L66.9481 9.93397L64.5192 10.7651L48.9536 8.48043C48.7817 8.45501 48.6063 8.46438 48.438 8.50799C48.2697 8.55159 48.1119 8.62854 47.9739 8.73427L43.622 12.0543H32.61L29.8525 10.1217L29.9646 9.91136C30.3993 9.10027 30.4923 8.16659 30.2246 7.28074C30.0949 6.84602 29.8802 6.44132 29.5931 6.09006C29.3061 5.7388 28.9522 5.44794 28.552 5.23431L19.5421 0.406861C19.0421 0.139851 18.4841 0.000116493 17.9173 9.56341e-06C17.2916 -0.00146248 16.6772 0.167029 16.1398 0.487491C15.6024 0.807954 15.1621 1.26836 14.8659 1.81954L0.499206 28.6204C0.0669197 29.4285 -0.0271184 30.3751 0.237729 31.2524C0.502576 32.1298 1.10467 32.8662 1.91188 33.3001L10.9217 38.1302C11.7181 38.556 12.6497 38.6528 13.5166 38.4C14.3836 38.1471 15.117 37.5646 15.5597 36.7775C15.6005 36.7948 15.6396 36.8157 15.6831 36.8296L17.3601 37.346C17.7078 38.3518 18.4659 40.174 19.7403 41.5154L19.0118 42.243C18.1287 43.1288 17.6327 44.3287 17.6327 45.5795C17.6327 46.8304 18.1287 48.0302 19.0118 48.9161C19.449 49.3555 19.969 49.7039 20.5417 49.9411C21.1144 50.1784 21.7285 50.2998 22.3483 50.2983C22.916 50.2983 23.4628 50.1853 23.9792 49.994C24.1665 50.8811 24.6081 51.6943 25.2502 52.3343C25.6877 52.7739 26.2079 53.1225 26.7809 53.3599C27.3539 53.5973 27.9683 53.7188 28.5885 53.7174C29.2639 53.7174 29.9133 53.5662 30.5123 53.2967C30.7114 54.1052 31.1087 54.8737 31.739 55.5048C32.176 55.9443 32.6958 56.2927 33.2684 56.53C33.8409 56.7672 34.4548 56.8886 35.0746 56.887C35.5015 56.887 35.9135 56.8114 36.3152 56.7019C36.4686 57.677 36.9266 58.5786 37.6235 59.2777C38.4768 60.133 39.6272 60.6261 40.8349 60.6542C42.0427 60.6824 43.2148 60.2435 44.1071 59.429L48.8502 62.9959C49.718 63.6487 50.7748 64.0012 51.8607 64C52.6401 64.0016 53.4092 63.8218 54.107 63.4747C54.8049 63.1277 55.4124 62.623 55.8814 62.0005C56.4922 61.1926 56.8422 60.2176 56.8846 59.2056C57.2689 59.2995 57.661 59.3629 58.0617 59.3629C58.2999 59.3629 58.5399 59.3464 58.7798 59.3116C59.4333 59.2204 60.0624 59.0007 60.6305 58.6651C61.1987 58.3296 61.6948 57.8848 62.0902 57.3565C62.6686 56.5908 63.013 55.6742 63.0822 54.7172C63.7962 54.9451 64.5527 55.0082 65.2946 54.9015C65.9475 54.8105 66.5758 54.5911 67.1433 54.2558C67.7107 53.9205 68.2061 53.476 68.6007 52.9481C69.2585 52.0781 69.6119 51.016 69.6066 49.9254C69.8508 49.9619 70.0986 49.9853 70.3481 49.9853C70.5846 49.9853 70.8236 49.968 71.0627 49.9349C71.716 49.8439 72.3447 49.6243 72.9126 49.2889C73.4805 48.9534 73.9763 48.5088 74.3714 47.9806C74.879 47.3096 75.2087 46.5212 75.3299 45.6886C75.451 44.856 75.3596 44.0062 75.0643 43.2184C78.2948 41.4432 79.6874 38.7552 80.1856 37.4964L81.4965 37.0278C81.9764 37.7318 82.6995 38.2336 83.5269 38.4367C84.3542 38.6399 85.2275 38.5301 85.9789 38.1284L94.9878 33.2992C95.7949 32.8656 96.397 32.1296 96.6622 31.2527C96.9273 30.3757 96.8338 29.4294 96.4022 28.6213ZM12.5457 35.929C12.4083 35.9295 12.2729 35.8957 12.1518 35.8307L3.14374 31.0016C2.94768 30.8931 2.80171 30.7124 2.73692 30.4979C2.67214 30.2834 2.69365 30.052 2.79687 29.8532L17.1645 3.05139C17.2713 2.8541 17.4517 2.70702 17.6665 2.64221C17.8813 2.5774 18.113 2.60012 18.3111 2.7054L27.3192 7.53285C27.4171 7.5855 27.5036 7.65701 27.5737 7.74325C27.6439 7.82949 27.6962 7.92875 27.7278 8.03532C27.7607 8.14129 27.7722 8.25274 27.7616 8.36318C27.751 8.47363 27.7185 8.58086 27.6661 8.67864L13.2994 35.4839C13.2258 35.6193 13.1168 35.7322 12.9841 35.8106C12.8513 35.889 12.6998 35.9299 12.5457 35.929ZM20.8557 47.0722C20.4607 46.6758 20.239 46.1389 20.2392 45.5793C20.2394 45.0198 20.4614 44.4831 20.8566 44.0869L22.2197 42.7246C22.5205 42.622 22.7882 42.4177 22.9508 42.1161C22.9873 42.0474 23.0151 41.977 23.0386 41.9057L23.7454 41.1989C23.9412 41.0022 24.1742 40.8463 24.4307 40.7402C24.6872 40.6341 24.9622 40.5799 25.2398 40.5808C25.8031 40.5808 26.3334 40.7999 26.7298 41.1954C27.5522 42.0205 27.5531 43.361 26.7307 44.1825L23.8401 47.0722C23.0429 47.8694 21.6537 47.8694 20.8557 47.0722ZM27.0941 50.4896C26.8981 50.2951 26.7428 50.0636 26.6372 49.8085C26.5315 49.5535 26.4776 49.2799 26.4786 49.0039C26.4774 48.7256 26.5316 48.45 26.6378 48.1928C26.7441 47.9357 26.9003 47.7022 27.0975 47.506L32.4014 42.203C32.5966 42.0063 32.8289 41.8504 33.0848 41.7441C33.3407 41.6379 33.6152 41.5835 33.8923 41.584C34.3095 41.5849 34.7171 41.7092 35.0638 41.9413C35.4105 42.1734 35.6807 42.503 35.8404 42.8884C36.0001 43.2738 36.0422 43.6979 35.9613 44.1072C35.8804 44.5165 35.6802 44.8926 35.3858 45.1883L33.0664 47.5077L31.7416 48.8309L31.7346 48.8396L30.0837 50.4904C29.2831 51.2894 27.8947 51.2902 27.0941 50.4896ZM33.5846 53.6618C33.1906 53.2665 32.9689 52.7316 32.9676 52.1736C32.9663 51.6156 33.1855 51.0796 33.5776 50.6826L34.4348 49.8254L36.4751 47.7885C36.8724 47.3904 37.401 47.1713 37.9643 47.1713C38.5276 47.1713 39.0579 47.3912 39.4587 47.792C39.8569 48.1893 40.0768 48.7178 40.0768 49.2812C40.0768 49.8445 39.8577 50.3748 39.4578 50.7738L38.4381 51.7927L37.6261 52.6038L37.6218 52.609L36.569 53.6618C35.771 54.4572 34.3818 54.4581 33.5846 53.6618ZM40.9609 58.0485C40.684 58.0494 40.4095 57.9955 40.1535 57.8899C39.8975 57.7842 39.6649 57.6289 39.4691 57.433C39.2723 57.2374 39.1164 57.0046 39.0103 56.7482C38.9041 56.4918 38.85 56.2169 38.851 55.9395C38.851 55.3779 39.0701 54.8493 39.4674 54.4511L40.0603 53.8591L40.8505 53.0698C41.0462 52.8731 41.279 52.7172 41.5354 52.6111C41.7917 52.505 42.0666 52.4508 42.344 52.4517C42.9074 52.4517 43.4368 52.6707 43.8341 53.0672C44.2286 53.4639 44.4504 54.0003 44.4512 54.5598C44.452 55.1192 44.2318 55.6564 43.8384 56.0542L42.4545 57.4313C42.2585 57.6275 42.0256 57.7831 41.7693 57.889C41.513 57.9949 41.2383 58.0491 40.9609 58.0485ZM72.2885 46.4132C72.0986 46.6672 71.8602 46.8811 71.5871 47.0424C71.314 47.2037 71.0117 47.3093 70.6976 47.353C70.3816 47.3982 70.0598 47.3799 69.751 47.2993C69.4422 47.2187 69.1525 47.0774 68.8989 46.8835L67.6836 45.9846C67.6558 45.962 67.634 45.9342 67.6053 45.9125C67.5732 45.8881 67.5375 45.8725 67.5036 45.8516L51.5365 34.0416C51.3988 33.9398 51.2424 33.8661 51.0762 33.8247C50.91 33.7833 50.7373 33.775 50.568 33.8004C50.3986 33.8257 50.2359 33.8842 50.0891 33.9724C49.9424 34.0607 49.8144 34.1769 49.7126 34.3146C49.6107 34.4523 49.537 34.6087 49.4956 34.7749C49.4542 34.941 49.446 35.1137 49.4713 35.2831C49.4967 35.4525 49.5551 35.6152 49.6434 35.7619C49.7316 35.9087 49.8479 36.0367 49.9855 36.1385L66.1196 48.0719C66.6031 48.4634 66.9152 49.0277 66.9898 49.6453C67.0645 50.2629 66.8958 50.8853 66.5195 51.3806C66.3296 51.6345 66.0914 51.8482 65.8185 52.0095C65.5456 52.1707 65.2434 52.2764 64.9295 52.3204C64.6186 52.3659 64.3018 52.3496 63.9972 52.2724C63.6925 52.1953 63.4061 52.0589 63.1543 51.871L48.4242 40.4661C48.1502 40.2615 47.8069 40.1728 47.4681 40.2189C47.1293 40.2651 46.8222 40.4424 46.6129 40.7128C46.4036 40.9832 46.3089 41.325 46.3491 41.6645C46.3894 42.004 46.5614 42.3142 46.8281 42.5281L59.304 52.1874C59.3692 52.2665 59.4414 52.3413 59.5266 52.4056C60.0429 52.7942 60.3776 53.361 60.4681 54C60.5585 54.6389 60.3959 55.2735 60.009 55.7865C59.8187 56.0409 59.5797 56.2552 59.3061 56.4168C59.0324 56.5784 58.7294 56.6841 58.4147 56.728C57.7892 56.8189 57.1532 56.6586 56.6456 56.282L44.8651 47.0844C44.5919 46.8799 44.2495 46.7907 43.9113 46.8358C43.5731 46.881 43.266 47.0569 43.056 47.3258C42.846 47.5947 42.7498 47.9353 42.788 48.2743C42.8262 48.6134 42.9958 48.924 43.2603 49.1395L53.0891 56.8149C53.1569 56.9001 53.2317 56.9801 53.3221 57.0487C53.8385 57.4373 54.1723 58.0033 54.2627 58.6422C54.3531 59.2812 54.1897 59.9167 53.8011 60.4322C53.4153 60.943 52.843 61.2802 52.2093 61.3701C51.5755 61.46 50.932 61.2954 50.4193 60.9121L45.9588 57.5582C47.4879 55.7039 47.4088 52.9559 45.678 51.2224C44.8619 50.4123 43.7758 49.9313 42.6274 49.8715C42.6518 49.675 42.6848 49.4811 42.6848 49.2803C42.6878 48.1255 42.2637 47.0104 41.494 46.1496C40.7243 45.2887 39.6634 44.7429 38.5155 44.6172C38.6675 43.8566 38.6296 43.0703 38.4051 42.3279C38.1807 41.5855 37.7767 40.9099 37.2288 40.3609C36.7919 39.9207 36.2719 39.5716 35.699 39.3339C35.1261 39.0962 34.5117 38.9745 33.8914 38.976C33.2715 38.9745 32.6575 39.096 32.0849 39.3336C31.5123 39.5712 30.9925 39.9201 30.5558 40.36L29.6986 41.2172C29.4757 40.5154 29.0906 39.876 28.5746 39.3507C28.1373 38.9124 27.6175 38.565 27.0453 38.3285C26.4731 38.092 25.8598 37.9711 25.2406 37.9728C24.6205 37.9712 24.0063 38.0924 23.4333 38.3295C22.8603 38.5666 22.34 38.9149 21.9024 39.3542L21.5938 39.6628C20.5601 38.544 19.8655 36.7149 19.656 35.9568C19.5982 35.7448 19.4879 35.5509 19.3351 35.393C19.1824 35.2351 18.9922 35.1183 18.7823 35.0536L16.815 34.4476L28.6128 12.4359L31.4521 14.425C31.6712 14.5789 31.9328 14.6606 32.2006 14.6606H40.2037L34.8156 18.7717C34.6561 18.8933 34.5269 19.0501 34.438 19.2299C34.349 19.4096 34.3027 19.6074 34.3026 19.8079V33.7895C34.3026 34.3224 34.6278 34.8023 35.1224 35.0005C35.8692 35.2996 36.8985 35.5369 38.0243 35.5369C40.3167 35.5369 43.0065 34.5502 44.5096 31.0807C44.5391 31.0129 44.5626 30.9416 44.58 30.8694L45.9275 25.3152L46.7638 24.4885L71.813 43.0324C72.0666 43.2215 72.2801 43.4592 72.4411 43.7315C72.6021 44.0039 72.7075 44.3055 72.751 44.6189C72.7968 44.9337 72.7795 45.2545 72.7001 45.5626C72.6207 45.8706 72.4808 46.1598 72.2885 46.4132ZM78.7216 35.2518C78.5235 35.324 78.3456 35.4425 78.2027 35.5976C78.0597 35.7526 77.956 35.9395 77.9001 36.1428C77.8627 36.2793 76.9864 39.3325 73.5264 41.085C73.4717 41.0398 73.4273 40.9851 73.3699 40.9425L48.5763 22.5881C48.8293 22.0995 48.7702 21.4918 48.3625 21.0789C48.1196 20.8328 47.7889 20.6933 47.4431 20.691C47.0973 20.6887 46.7648 20.8239 46.5186 21.0667L45.7745 21.8022L45.7606 21.8161L43.8306 23.7208C43.6584 23.8912 43.5368 24.1061 43.4794 24.3415L42.0719 30.1427C40.7262 33.1271 38.2242 33.0793 36.9089 32.8124V20.4547L49.1179 11.1406L64.4522 13.3922C64.6565 13.4226 64.8678 13.4026 65.0634 13.3366L68.1965 12.2647L80.2282 34.7145L78.7216 35.2518ZM93.7568 31.0016L84.7496 35.8299C84.5506 35.9309 84.3204 35.9515 84.1066 35.8874C83.8928 35.8233 83.7118 35.6794 83.6012 35.4856L69.2336 8.67864C69.1284 8.48217 69.1067 8.25353 69.1728 8.03532C69.2388 7.81712 69.3831 7.63891 69.5805 7.53285L78.586 2.70627C78.7842 2.60049 79.0162 2.57732 79.2315 2.6418C79.4467 2.70628 79.6278 2.85318 79.7353 3.05053L94.1028 29.8523C94.2089 30.0507 94.2321 30.283 94.1673 30.4984C94.1024 30.7138 93.9548 30.8947 93.7568 31.0016Z" fill="#606060"/>
</g>
</svg>
