<svg width="16" height="16" viewBox="0 0 16 16" fill="none" xmlns="http://www.w3.org/2000/svg">
<g clip-path="url(#clip0_262_3144)">
<path d="M14.4 1.6H13.6V0.8C13.6 0.32 13.28 0 12.8 0C12.32 0 12 0.32 12 0.8V1.6H4V0.8C4 0.32 3.68 0 3.2 0C2.72 0 2.4 0.32 2.4 0.8V1.6H0.8C0.4 1.6 0 1.92 0 2.4V13.6C0 14.08 0.4 14.4 0.8 14.4H5.68C5.12 13.44 4.8 12.32 4.8 11.2C4.8 7.68 7.68 4.8 11.2 4.8C12.72 4.8 14.08 5.36 15.2 6.24V2.4C15.2 2 14.8 1.6 14.4 1.6Z" fill="#32332E"/>
<path d="M11.2004 6.40002C8.56039 6.40002 6.40039 8.56002 6.40039 11.2C6.40039 13.84 8.56039 16 11.2004 16C13.8404 16 16.0004 13.84 16.0004 11.2C16.0004 8.56002 13.8404 6.40002 11.2004 6.40002ZM12.8004 12H11.2004C10.7204 12 10.4004 11.68 10.4004 11.2V8.80002C10.4004 8.32002 10.7204 8.00002 11.2004 8.00002C11.6804 8.00002 12.0004 8.32002 12.0004 8.80002V10.4H12.8004C13.2804 10.4 13.6004 10.72 13.6004 11.2C13.6004 11.68 13.2804 12 12.8004 12Z" fill="#32332E"/>
</g>
<defs>
<clipPath id="clip0_262_3144">
<rect width="16" height="16" fill="white"/>
</clipPath>
</defs>
</svg>
