<svg width="134" height="40" viewBox="0 0 134 40" fill="none" xmlns="http://www.w3.org/2000/svg">
<path d="M128.144 38.6876H5.01216C2.51683 38.6876 0.494751 36.666 0.494751 34.1713V5.00865C0.494751 2.51391 2.51683 0.49231 5.01216 0.49231H128.144C130.639 0.49231 132.661 2.51391 132.661 5.00865V34.1713C132.661 36.666 130.639 38.6876 128.144 38.6876Z" fill="black"/>
<mask id="mask0_207_1459" style="mask-type:luminance" maskUnits="userSpaceOnUse" x="0" y="0" width="134" height="40">
<path d="M0 0H133.151V39.7629H0V0Z" fill="white"/>
</mask>
<g mask="url(#mask0_207_1459)">
<path d="M5.00979 0.986791C2.79171 0.986791 0.987139 2.79094 0.987139 5.00848V34.1711C0.987139 36.3887 2.79171 38.1928 5.00979 38.1928H128.144C130.362 38.1928 132.167 36.3887 132.167 34.1711V5.00848C132.167 2.79094 130.362 0.986791 128.144 0.986791H5.00979ZM128.144 39.1821H5.00979C2.24676 39.1821 0 36.9335 0 34.1711V5.00848C0 2.24611 2.24676 -0.00250244 5.00979 -0.00250244H128.144C130.907 -0.00250244 133.154 2.24611 133.154 5.00848V34.1711C133.154 36.9335 130.907 39.1821 128.144 39.1821Z" fill="#A7A9AB"/>
</g>
<path d="M46.1732 10.2537L45.6665 8.66701C45.5422 8.27512 45.4371 7.83782 45.3415 7.46504H45.3223C45.2291 7.83782 45.1311 8.28467 45.0188 8.66701L44.5216 10.2537H46.1732ZM44.3304 11.1402L43.7759 12.9659H42.5617L44.6268 6.52832H46.1254L48.2168 12.9659H46.9572L46.374 11.1402" fill="white"/>
<path d="M49.9736 8.31573L50.7289 10.6719C50.8627 11.0829 50.956 11.4557 51.042 11.838H51.0707C51.1567 11.4557 51.2619 11.0924 51.3862 10.6719L52.1319 8.31573H53.3629L51.587 12.9659H50.4325L48.702 8.31573" fill="white"/>
<path d="M56.9074 10.6911C56.0756 10.6816 55.2821 10.8536 55.2821 11.5609C55.2821 12.0197 55.5785 12.23 55.9514 12.23C56.427 12.23 56.764 11.9242 56.8764 11.5896C56.9074 11.5036 56.9074 11.4176 56.9074 11.3315V10.6911ZM58.0523 11.8477C58.0523 12.2683 58.0714 12.6793 58.1288 12.9636H57.0676L56.9839 12.4499H56.9528C56.678 12.8107 56.1904 13.0688 55.5785 13.0688C54.6415 13.0688 54.1181 12.3925 54.1181 11.6852C54.1181 10.5191 55.1578 9.91929 56.8764 9.92884V9.85238C56.8764 9.54651 56.7545 9.03991 55.9322 9.03991C55.4733 9.03991 54.9953 9.18329 54.6798 9.38402L54.4503 8.61935C54.7945 8.40906 55.3968 8.21072 56.133 8.21072C57.6221 8.21072 58.0523 9.15461 58.0523 10.1774" fill="white"/>
<path d="M59.7134 8.31569H60.887V12.9658H59.7134V8.31569ZM60.2942 7.6466C59.9046 7.6466 59.6465 7.35985 59.6465 7.01575C59.6465 6.65253 59.9118 6.37534 60.3062 6.37534C60.7053 6.37534 60.9539 6.65253 60.9635 7.01575C60.9635 7.35985 60.7053 7.6466 60.3062 7.6466" fill="white"/>
<path d="M62.5769 12.966H63.7529V6.17474H62.5769V12.966Z" fill="white"/>
<path d="M67.9166 10.6911C67.0849 10.6816 66.2913 10.8536 66.2913 11.5609C66.2913 12.0197 66.5877 12.23 66.9606 12.23C67.4386 12.23 67.7732 11.9242 67.888 11.5896C67.9166 11.5036 67.9166 11.4176 67.9166 11.3315V10.6911ZM69.0615 11.8477C69.0615 12.2683 69.0807 12.6793 69.138 12.9636H68.0792L67.9931 12.4499H67.9644C67.6872 12.8107 67.1996 13.0688 66.5877 13.0688C65.6532 13.0688 65.1273 12.3925 65.1273 11.6852C65.1273 10.5191 66.1694 9.91929 67.888 9.92884V9.85238C67.888 9.54651 67.7637 9.03991 66.9415 9.03991C66.4825 9.03991 66.0045 9.18329 65.6914 9.38402L65.4619 8.61935C65.8061 8.40906 66.4061 8.21072 67.1422 8.21072C68.6313 8.21072 69.0615 9.15461 69.0615 10.1774" fill="white"/>
<path d="M71.8986 11.0447C71.8986 11.1403 71.9082 11.2359 71.9273 11.3219C72.0516 11.7999 72.4627 12.144 72.967 12.144C73.7032 12.144 74.1525 11.5609 74.1525 10.617C74.1525 9.79498 73.7605 9.1259 72.9766 9.1259C72.4985 9.1259 72.0611 9.47 71.9368 9.98615C71.9177 10.0722 71.8986 10.1773 71.8986 10.292V11.0447ZM70.7226 6.17474H71.8986V8.95385H71.9177C72.2045 8.5046 72.7089 8.21068 73.4068 8.21068C74.5445 8.21068 75.3548 9.15457 75.3452 10.5692C75.3452 12.2395 74.2864 13.0711 73.2347 13.0711C72.6324 13.0711 72.0994 12.8417 71.7647 12.2682H71.7456L71.6883 12.966H70.6844C70.7035 12.6506 70.7226 12.1344 70.7226 11.666" fill="white"/>
<path d="M76.7291 12.966H77.9026V6.17474H76.7291V12.966Z" fill="white"/>
<path d="M82.4775 10.1487C82.487 9.71856 82.2958 9.01124 81.5142 9.01124C80.7876 9.01124 80.4817 9.67077 80.4339 10.1487H82.4775ZM80.4339 10.9683C80.4626 11.8095 81.1223 12.1727 81.868 12.1727C82.4106 12.1727 82.793 12.0867 83.1563 11.9624L83.3284 12.7629C82.9268 12.9373 82.3723 13.0592 81.7055 13.0592C80.1949 13.0592 79.3057 12.1344 79.3057 10.7126C79.3057 9.42225 80.0897 8.21072 81.5812 8.21072C83.0894 8.21072 83.5865 9.45092 83.5865 10.4737C83.5865 10.6935 83.5674 10.8656 83.5483 10.9683" fill="white"/>
<path d="M89.421 12.2205C90.0878 12.2205 90.5563 11.5705 90.5563 10.6266C90.5563 9.90017 90.2312 9.05903 89.4305 9.05903C88.5987 9.05903 88.2641 9.87149 88.2641 10.6457C88.2641 11.5418 88.7135 12.2205 89.409 12.2205H89.421ZM89.3827 13.0712C88.0729 13.0712 87.0523 12.1727 87.0523 10.6744C87.0523 9.14506 88.0538 8.21072 89.4592 8.21072C90.8431 8.21072 91.7705 9.18329 91.7705 10.5979C91.7705 12.3065 90.5659 13.0712 89.3923 13.0712" fill="white"/>
<path d="M93.1519 9.69944C93.1519 9.16417 93.1352 8.71493 93.1161 8.31348H94.1367L94.1941 9.01124H94.2227C94.4331 8.64802 94.9398 8.21072 95.7142 8.21072C96.5245 8.21072 97.3658 8.73405 97.3658 10.206V12.9636H96.1898V10.3399C96.1898 9.67077 95.9413 9.16417 95.3031 9.16417C94.8346 9.16417 94.5096 9.49872 94.3853 9.85238C94.347 9.94796 94.3279 10.0913 94.3279 10.2252V12.9636H93.1519" fill="white"/>
<path d="M102.78 7.12112V8.31353H103.896V9.19291H102.78V11.236C102.78 11.8095 102.933 12.0963 103.379 12.0963C103.59 12.0963 103.705 12.0867 103.838 12.0485L103.858 12.935C103.685 13.0043 103.37 13.0593 103.007 13.0593C102.569 13.0593 102.215 12.9159 101.996 12.6793C101.737 12.4117 101.623 11.9816 101.623 11.3698V9.19291H100.963V8.31353H101.623V7.44611" fill="white"/>
<path d="M105.203 6.17474H106.379V8.94429H106.398C106.542 8.72444 106.742 8.54283 106.981 8.41858C107.22 8.28715 107.495 8.21068 107.792 8.21068C108.585 8.21068 109.415 8.734 109.415 10.2251V12.966H108.241V10.3494C108.241 9.68028 107.992 9.16413 107.342 9.16413C106.886 9.16413 106.561 9.47 106.427 9.82366C106.389 9.9288 106.379 10.0531 106.379 10.1773V12.966H105.203" fill="white"/>
<path d="M113.961 10.1487C113.97 9.71856 113.779 9.01124 112.995 9.01124C112.269 9.01124 111.965 9.67077 111.917 10.1487H113.961ZM111.917 10.9683C111.946 11.8095 112.603 12.1727 113.349 12.1727C113.894 12.1727 114.276 12.0867 114.637 11.9624L114.812 12.7629C114.41 12.9373 113.856 13.0592 113.186 13.0592C111.678 13.0592 110.789 12.1344 110.789 10.7126C110.789 9.42225 111.573 8.21072 113.062 8.21072C114.57 8.21072 115.067 9.45092 115.067 10.4737C115.067 10.6935 115.048 10.8656 115.029 10.9683" fill="white"/>
<path d="M29.7169 19.2077C29.6858 16.0224 32.3245 14.4715 32.4464 14.3998C30.9526 12.2205 28.6365 11.9242 27.8215 11.9003C25.8783 11.6972 23.9924 13.0664 23.0029 13.0664C21.9918 13.0664 20.4645 11.9218 18.8225 11.9553C16.7048 11.9887 14.7257 13.2146 13.6406 15.1143C11.4034 18.9926 13.0717 24.6894 15.2181 27.8246C16.2937 29.3587 17.5461 31.0744 19.1882 31.0123C20.7944 30.9454 21.3943 29.9896 23.3327 29.9896C25.2544 29.9896 25.8185 31.0123 27.494 30.9741C29.2173 30.9454 30.3024 29.4328 31.3374 27.8819C32.5803 26.1232 33.0774 24.3907 33.0966 24.3023C33.0559 24.288 29.7503 23.0263 29.7169 19.2077Z" fill="white"/>
<path d="M26.5524 9.84035C27.4153 8.76025 28.0104 7.28826 27.8431 5.79715C26.593 5.8545 25.0299 6.66218 24.1288 7.71839C23.3329 8.65033 22.6182 10.1773 22.8046 11.611C24.21 11.7162 25.6513 10.9037 26.5524 9.84035Z" fill="white"/>
<path d="M49.1011 25.2892L47.9921 21.865C47.875 21.5161 47.6551 20.6917 47.33 19.3965H47.2918C47.1627 19.9533 46.9524 20.7777 46.668 21.865L45.578 25.2892H49.1011ZM52.935 30.759H50.6954L49.4692 26.907H45.21L44.0412 30.759H41.8613L46.0871 17.6449H48.6924" fill="white"/>
<path d="M61.6544 25.9918C61.6544 25.0694 61.4465 24.3119 61.0306 23.7145C60.5764 23.0932 59.9669 22.7802 59.2021 22.7802C58.6834 22.7802 58.2102 22.9546 57.7919 23.2963C57.3712 23.6428 57.094 24.0921 56.9625 24.6512C56.898 24.9093 56.8669 25.122 56.8669 25.2892V26.8664C56.8669 27.5546 57.0772 28.1353 57.4979 28.6084C57.921 29.0839 58.4683 29.3181 59.1423 29.3181C59.9359 29.3181 60.5525 29.0146 60.9899 28.4029C61.4345 27.7935 61.6544 26.9906 61.6544 25.9918ZM63.796 25.9129C63.796 27.5211 63.361 28.7948 62.491 29.7267C61.7118 30.5583 60.7438 30.9717 59.5917 30.9717C58.344 30.9717 57.4501 30.5225 56.9051 29.6288H56.8669V34.6111H54.7636V24.4147C54.7636 23.4039 54.7397 22.3668 54.6871 21.301H56.5347L56.6518 22.8017H56.6924C57.3927 21.6714 58.4564 21.1075 59.8833 21.1075C60.9971 21.1075 61.9317 21.5495 62.675 22.4313C63.4207 23.3154 63.796 24.4744 63.796 25.9129Z" fill="white"/>
<path d="M72.532 25.9918C72.532 25.0694 72.3241 24.3119 71.9082 23.7145C71.4541 23.0932 70.8446 22.7802 70.0797 22.7802C69.561 22.7802 69.0902 22.9546 68.6695 23.2963C68.2465 23.6428 67.974 24.0921 67.8449 24.6512C67.778 24.9093 67.7469 25.122 67.7469 25.2892V26.8664C67.7469 27.5546 67.9549 28.1353 68.3755 28.6084C68.7986 29.0839 69.3459 29.3181 70.0223 29.3181C70.8135 29.3181 71.4302 29.0146 71.8699 28.4029C72.3097 27.7935 72.532 26.9906 72.532 25.9918ZM74.6712 25.9129C74.6712 27.5211 74.2386 28.7948 73.3686 29.7267C72.5894 30.5583 71.6238 30.9717 70.4693 30.9717C69.224 30.9717 68.3301 30.5225 67.7828 29.6288H67.7469V34.6111H65.6436V24.4147C65.6436 23.4039 65.6173 22.3668 65.5671 21.301H67.4147L67.5318 22.8017H67.5724C68.2704 21.6714 69.334 21.1075 70.7609 21.1075C71.8771 21.1075 72.8069 21.5495 73.555 22.4313C74.3007 23.3154 74.6712 24.4744 74.6712 25.9129Z" fill="white"/>
<path d="M86.8371 27.0813C86.8371 28.1949 86.4499 29.1029 85.6707 29.8055C84.8151 30.5701 83.6271 30.9525 82.0998 30.9525C80.6872 30.9525 79.5543 30.6801 78.6962 30.1352L79.1838 28.386C80.1088 28.9428 81.1199 29.22 82.2241 29.22C83.0153 29.22 83.6319 29.0432 84.0741 28.6871C84.5139 28.3287 84.7338 27.8508 84.7338 27.2534C84.7338 26.7229 84.5545 26.2712 84.1912 25.908C83.8279 25.5448 83.2232 25.2079 82.3795 24.8948C80.0825 24.037 78.9352 22.7824 78.9352 21.1336C78.9352 20.0559 79.3368 19.1718 80.1423 18.4835C80.9454 17.7953 82.0162 17.4489 83.3523 17.4489C84.5474 17.4489 85.5393 17.6591 86.3304 18.0725L85.8046 19.7859C85.066 19.3844 84.2295 19.1813 83.2949 19.1813C82.554 19.1813 81.9779 19.3629 81.5644 19.7261C81.2155 20.0511 81.0386 20.4478 81.0386 20.9138C81.0386 21.4323 81.237 21.86 81.6409 22.197C81.9899 22.5076 82.6257 22.8446 83.5483 23.2102C84.6764 23.6642 85.5058 24.1947 86.0388 24.804C86.5694 25.4134 86.8371 26.1733 86.8371 27.0813Z" fill="white"/>
<path d="M93.7829 22.8779H91.4669V27.4683C91.4669 28.6368 91.8756 29.2199 92.6954 29.2199C93.0683 29.2199 93.3814 29.1888 93.6276 29.1243L93.6849 30.7181C93.2738 30.8759 92.7265 30.9523 92.0525 30.9523C91.2231 30.9523 90.573 30.699 90.1045 30.1948C89.6384 29.6882 89.4042 28.8375 89.4042 27.6451V22.8779H88.0226V21.3007H89.4042V19.5707L91.4669 18.947V21.3007H93.7829" fill="white"/>
<path d="M102.055 26.0205C102.055 25.1483 101.866 24.4027 101.489 23.7766C101.051 23.0215 100.42 22.644 99.603 22.644C98.7592 22.644 98.1163 23.0215 97.6765 23.7766C97.2988 24.4027 97.1148 25.1626 97.1148 26.0611C97.1148 26.9333 97.2988 27.6788 97.6765 28.3025C98.1306 29.0576 98.7664 29.4352 99.5862 29.4352C100.387 29.4352 101.018 29.0529 101.472 28.2834C101.862 27.6478 102.055 26.8927 102.055 26.0205ZM104.235 25.9536C104.235 27.4064 103.822 28.5988 102.99 29.5332C102.12 30.4938 100.965 30.9717 99.5265 30.9717C98.1354 30.9717 97.0311 30.5105 96.2065 29.5905C95.3843 28.6705 94.9732 27.5092 94.9732 26.1089C94.9732 24.6417 95.3963 23.4421 96.2472 22.5101C97.0957 21.5734 98.2406 21.1075 99.6794 21.1075C101.068 21.1075 102.187 21.5686 103.028 22.4886C103.834 23.3871 104.235 24.5389 104.235 25.9536Z" fill="white"/>
<path d="M111.066 23.1506C110.858 23.1123 110.638 23.0932 110.404 23.0932C109.666 23.0932 109.092 23.3728 108.69 23.9296C108.341 24.4242 108.167 25.0455 108.167 25.7958V30.759H106.066L106.083 24.2808C106.083 23.1888 106.056 22.1971 106.006 21.301H107.837L107.914 23.1123H107.969C108.191 22.491 108.542 21.9892 109.02 21.614C109.489 21.2771 109.995 21.1075 110.54 21.1075C110.734 21.1075 110.911 21.1218 111.066 21.1457" fill="white"/>
<path d="M118.459 25.0383C118.473 24.417 118.337 23.877 118.053 23.423C117.689 22.8399 117.128 22.546 116.377 22.546C115.691 22.546 115.132 22.8327 114.704 23.4038C114.355 23.8579 114.145 24.4027 114.085 25.0383H118.459ZM120.462 25.5832C120.462 25.9607 120.438 26.2761 120.388 26.5366H114.085C114.107 27.4709 114.413 28.1854 114.998 28.6777C115.529 29.1198 116.217 29.3372 117.061 29.3372C117.993 29.3372 118.844 29.1891 119.611 28.8904L119.941 30.3504C119.045 30.7375 117.988 30.9358 116.767 30.9358C115.302 30.9358 114.15 30.5033 113.313 29.6383C112.479 28.778 112.058 27.6191 112.058 26.1662C112.058 24.7396 112.445 23.552 113.227 22.6057C114.042 21.5925 115.146 21.0883 116.533 21.0883C117.895 21.0883 118.93 21.5925 119.63 22.6057C120.187 23.4086 120.462 24.4027 120.462 25.5832Z" fill="white"/>
</svg>
