<svg width="40" height="40" viewBox="0 0 40 40" fill="none" xmlns="http://www.w3.org/2000/svg">
<rect width="40" height="40" rx="15" fill="#FDD800"/>
<g clip-path="url(#clip0_414_7556)">
<path d="M29.551 11.2652H28.4082V10.1223C28.4082 9.43664 27.951 8.97949 27.2653 8.97949C26.5796 8.97949 26.1225 9.43664 26.1225 10.1223V11.2652H14.6939V10.1223C14.6939 9.43664 14.2368 8.97949 13.551 8.97949C12.8653 8.97949 12.4082 9.43664 12.4082 10.1223V11.2652H10.1225C9.55104 11.2652 8.97961 11.7223 8.97961 12.4081V28.4081C8.97961 29.0938 9.55104 29.5509 10.1225 29.5509H17.0939C16.2939 28.1795 15.8368 26.5795 15.8368 24.9795C15.8368 19.9509 19.951 15.8366 24.9796 15.8366C27.151 15.8366 29.0939 16.6366 30.6939 17.8938V12.4081C30.6939 11.8366 30.1225 11.2652 29.551 11.2652Z" fill="#001529"/>
<path d="M24.9796 18.1221C21.2082 18.1221 18.1224 21.2078 18.1224 24.9792C18.1224 28.7506 21.2082 31.8364 24.9796 31.8364C28.751 31.8364 31.8367 28.7506 31.8367 24.9792C31.8367 21.2078 28.751 18.1221 24.9796 18.1221ZM27.2653 26.1221H24.9796C24.2939 26.1221 23.8367 25.6649 23.8367 24.9792V21.5506C23.8367 20.8649 24.2939 20.4078 24.9796 20.4078C25.6653 20.4078 26.1224 20.8649 26.1224 21.5506V23.8364H27.2653C27.951 23.8364 28.4082 24.2935 28.4082 24.9792C28.4082 25.6649 27.951 26.1221 27.2653 26.1221Z" fill="black"/>
</g>
<defs>
<clipPath id="clip0_414_7556">
<rect width="22.8571" height="22.8571" fill="white" transform="translate(8.97961 8.97949)"/>
</clipPath>
</defs>
</svg>
