<svg width="40" height="40" viewBox="0 0 40 40" fill="none" xmlns="http://www.w3.org/2000/svg">
<rect width="40" height="40" rx="20" fill="#E0E0E0"/>
<g clip-path="url(#clip0_1712_3338)">
<path d="M15.8019 9.35184C14.9412 8.87612 13.9306 8.88712 13.0754 9.35871L23.0986 18.6051L26.4658 15.2379L15.8019 9.35184ZM12.0731 10.3047C11.8284 10.7048 11.6881 11.1626 11.6881 11.648V28.3478C11.6881 28.818 11.816 29.2662 12.047 29.6581L22.1265 19.5785L12.0731 10.3047ZM30.9301 17.7017L27.7183 15.9295L24.1092 19.5373L28.5323 23.6167L30.9315 22.2926C31.795 21.8141 32.3119 20.9562 32.3119 19.9965C32.3106 19.0368 31.795 18.1788 30.9301 17.7017ZM23.1371 20.5107L13.03 30.6178C13.4686 30.868 13.9499 31 14.4338 31C14.9013 31 15.3715 30.8817 15.8019 30.6439L27.2646 24.3179L23.1371 20.5107Z" fill="#828282"/>
</g>
<defs>
<clipPath id="clip0_1712_3338">
<rect width="22" height="22" fill="white" transform="translate(11 9)"/>
</clipPath>
</defs>
</svg>
