<svg width="21" height="22" viewBox="0 0 21 22" fill="none" xmlns="http://www.w3.org/2000/svg">
<g id="Frame" clip-path="url(#clip0_1559_7414)">
<g id="Group">
<path id="Vector" d="M6.79001 11.0744C9.70813 11.0744 12.075 8.7075 12.075 5.78938C12.075 2.87125 9.70813 0.5 6.79001 0.5C3.87188 0.5 1.505 2.86688 1.505 5.785C1.505 8.70313 3.87188 11.0744 6.79001 11.0744ZM4.94376 7.87625C4.99188 7.70125 5.04001 7.53063 5.09251 7.35563C5.15376 7.15438 5.21063 7.1325 5.39438 7.22875C5.70938 7.39063 6.04188 7.4825 6.39188 7.52625C6.61501 7.5525 6.83813 7.53063 7.04376 7.43875C7.43313 7.26813 7.49438 6.8175 7.16625 6.54625C7.05251 6.45438 6.92563 6.38438 6.79438 6.3275C6.45313 6.17875 6.09876 6.065 5.77501 5.8725C5.25438 5.56188 4.92188 5.12875 4.96126 4.49438C5.00501 3.77688 5.41188 3.32625 6.06813 3.09C6.33938 2.98938 6.33938 2.99375 6.34376 2.70938V2.42063C6.34813 2.20625 6.38751 2.17125 6.59751 2.1625H6.79438C7.24938 2.1625 7.24938 2.1625 7.24938 2.6175C7.24938 2.93688 7.24938 2.94125 7.56876 2.98938C7.81376 3.02875 8.04563 3.09875 8.27313 3.19938C8.40001 3.25625 8.44375 3.34375 8.40875 3.475C8.35188 3.67188 8.29938 3.86875 8.23375 4.06125C8.1725 4.245 8.11563 4.27125 7.94063 4.18813C7.58626 4.0175 7.21438 3.94313 6.82063 3.965C6.71563 3.96938 6.61938 3.9825 6.52313 4.02625C6.18626 4.175 6.12938 4.54688 6.41813 4.77875C6.56251 4.89688 6.72876 4.98 6.90376 5.05C7.20126 5.1725 7.50313 5.295 7.79188 5.4525C8.69751 5.95563 8.94251 7.09313 8.30376 7.8675C8.07188 8.1475 7.77438 8.33563 7.42001 8.43188C7.26688 8.47563 7.19688 8.55438 7.20563 8.71188C7.21438 8.86938 7.20563 9.0225 7.20563 9.18C7.20563 9.32 7.13563 9.39438 6.99563 9.39875C6.82938 9.40313 6.65875 9.40313 6.49251 9.39875C6.34375 9.39438 6.27376 9.31125 6.27376 9.16688C6.27376 9.05313 6.27376 8.93938 6.26938 8.82563C6.26501 8.57625 6.26063 8.56313 6.01563 8.52375C5.70501 8.47563 5.40313 8.40563 5.11876 8.26563C4.90438 8.165 4.8825 8.10813 4.94376 7.87625Z" fill="#606060"/>
<path id="Vector_2" d="M18.6462 11.5164H18.0294C17.6225 10.2695 16.8262 9.16266 15.7631 8.30516C15.7631 8.26579 15.7544 8.22204 15.7456 8.18266C15.5225 7.39954 15.7981 6.68641 16.1175 6.17454C16.3406 5.81579 16.0519 5.35641 15.6319 5.40891C14.6912 5.52704 14.0437 5.87266 13.5975 6.26204C13.2912 6.52891 13.0725 6.88766 12.9762 7.28579C12.3025 10.077 9.78687 12.1552 6.78999 12.1552C5.33312 12.1552 3.99437 11.6652 2.92249 10.8427C2.55062 11.6477 2.34937 12.527 2.34937 13.4502C2.34937 13.9489 2.41062 14.4345 2.52437 14.9027C2.52437 14.9027 2.52437 14.9114 2.52874 14.9245C2.64687 15.4102 2.82624 15.8783 3.05374 16.3202C3.35562 16.972 3.79312 17.7333 4.39687 18.3502C5.26749 19.247 5.41624 20.3583 5.43812 20.8395V21.0758C5.45562 21.312 5.65249 21.5002 5.89312 21.5002H8.65811C8.90749 21.5002 9.11312 21.2989 9.11312 21.0452V20.3627C9.51562 20.4152 9.92687 20.4458 10.3425 20.4458C10.6706 20.4458 10.99 20.4283 11.3094 20.3933V21.0452C11.3094 21.2945 11.5106 21.5002 11.7644 21.5002H14.5381C14.7875 21.5002 14.9931 21.2989 14.9931 21.0452V20.3627C14.9975 20.1352 15.0762 19.2295 15.9337 18.4552L16.0256 18.3764C16.0344 18.3677 16.0431 18.3633 16.0519 18.3545C17.0056 17.5058 17.71 16.447 18.0731 15.2658H18.655C19.1187 15.2658 19.495 14.8895 19.495 14.4258V12.3564C19.4862 11.8927 19.11 11.5164 18.6462 11.5164ZM15.1856 11.6652C14.805 11.6652 14.4987 11.3589 14.4987 10.9783C14.4987 10.5977 14.805 10.2914 15.1856 10.2914C15.5662 10.2914 15.8725 10.5977 15.8725 10.9783C15.8725 11.3589 15.5662 11.6652 15.1856 11.6652Z" fill="#606060"/>
</g>
</g>
<defs>
<clipPath id="clip0_1559_7414">
<rect width="21" height="21" fill="white" transform="translate(0 0.5)"/>
</clipPath>
</defs>
</svg>
