<svg width="85" height="59" viewBox="0 0 85 59" fill="none" xmlns="http://www.w3.org/2000/svg">
<g id="Frame 16">
<path id="Vector (Stroke)" fill-rule="evenodd" clip-rule="evenodd" d="M66.0847 57.0827C66.9565 58.2927 68.3804 59 70.0807 59C73.4145 59 76.7593 56.2995 77.6405 52.9581L77.6405 52.9581C78.089 51.2574 77.832 49.6416 76.9632 48.4357C76.0914 47.2257 74.6675 46.5184 72.9672 46.5184C69.6334 46.5184 66.2886 49.2189 65.4074 52.5605C64.9589 54.261 65.2159 55.8769 66.0847 57.0827ZM67.3046 56.1753C66.7463 55.4004 66.5191 54.2799 66.8677 52.9581L66.8677 52.9581C67.5807 50.2545 70.3512 48.0545 72.9672 48.0545C74.2418 48.0545 75.1879 48.5723 75.7433 49.3431C76.3016 50.118 76.5288 51.2386 76.1802 52.5605C75.4672 55.2638 72.6967 57.4639 70.0807 57.4639C68.8061 57.4639 67.8599 56.9461 67.3046 56.1753Z" fill="#9B9B9B"/>
<path id="Vector (Stroke)_2" fill-rule="evenodd" clip-rule="evenodd" d="M70.7681 52.7593C70.7681 53.1835 71.1065 53.5273 71.524 53.5273H71.5374C71.9549 53.5273 72.2934 53.1835 72.2934 52.7593C72.2934 52.3351 71.9549 51.9912 71.5374 51.9912H71.524C71.1065 51.9912 70.7681 52.3351 70.7681 52.7593Z" fill="#9B9B9B"/>
<path id="Vector (Stroke)_3" fill-rule="evenodd" clip-rule="evenodd" d="M24.3405 57.0827C25.2123 58.2927 26.6363 59 28.3366 59C31.6703 59 35.0151 56.2995 35.8964 52.9581L35.8964 52.9581C36.3449 51.2574 36.0879 49.6416 35.2191 48.4357C34.3473 47.2257 32.9233 46.5184 31.2231 46.5184C27.8893 46.5184 24.5445 49.2189 23.6632 52.5605C23.2147 54.261 23.4717 55.8769 24.3405 57.0827ZM25.5605 56.1753C25.0021 55.4004 24.775 54.2799 25.1236 52.9581L25.1236 52.9581C25.8366 50.2545 28.6071 48.0545 31.2231 48.0545C32.4976 48.0545 33.4438 48.5723 33.9991 49.3431C34.5575 50.118 34.7846 51.2386 34.436 52.5605C33.7231 55.2638 30.9525 57.4639 28.3366 57.4639C27.062 57.4639 26.1158 56.9461 25.5605 56.1753Z" fill="#9B9B9B"/>
<path id="Vector (Stroke)_4" fill-rule="evenodd" clip-rule="evenodd" d="M29.0239 52.7593C29.0239 53.1835 29.3624 53.5273 29.7799 53.5273H29.7933C30.2108 53.5273 30.5492 53.1835 30.5492 52.7593C30.5492 52.3351 30.2108 51.9912 29.7933 51.9912H29.7799C29.3624 51.9912 29.0239 52.3351 29.0239 52.7593Z" fill="#9B9B9B"/>
<path id="Vector (Stroke)_5" fill-rule="evenodd" clip-rule="evenodd" d="M34.4102 52.7593C34.4102 53.1835 34.7486 53.5273 35.1661 53.5273H66.1378C66.5553 53.5273 66.8938 53.1835 66.8938 52.7593C66.8938 52.3351 66.5553 51.9912 66.1378 51.9912H35.1661C34.7486 51.9912 34.4102 52.3351 34.4102 52.7593Z" fill="#9B9B9B"/>
<path id="Vector (Stroke)_6" fill-rule="evenodd" clip-rule="evenodd" d="M56.5159 53.5011C56.9192 53.6109 57.3337 53.3677 57.4418 52.958L66.4623 18.7533L66.4623 18.7533C66.6118 18.1861 66.5363 17.5964 66.2027 17.1334C65.8661 16.6662 65.331 16.4183 64.7463 16.4183H55.9664C55.5489 16.4183 55.2104 16.7622 55.2104 17.1864C55.2104 17.6105 55.5489 17.9544 55.9664 17.9544H64.7463C64.9052 17.9544 64.9626 18.0127 64.9828 18.0408C65.006 18.073 65.0516 18.1674 65.0019 18.3557C65.0019 18.3557 65.0019 18.3558 65.0019 18.3558L55.9814 52.5604C55.8733 52.9702 56.1127 53.3913 56.5159 53.5011Z" fill="#9B9B9B"/>
<path id="Vector (Stroke)_7" fill-rule="evenodd" clip-rule="evenodd" d="M16.204 52.8122C16.5406 53.2794 17.0757 53.5273 17.6604 53.5273H24.3934C24.8109 53.5273 25.1494 53.1835 25.1494 52.7593C25.1494 52.3351 24.8109 51.9912 24.3934 51.9912H17.6604C17.5014 51.9912 17.4441 51.9329 17.4239 51.9049C17.4008 51.8727 17.3552 51.7783 17.4048 51.5899C17.4048 51.5899 17.4048 51.5899 17.4048 51.5899L19.9307 42.0122C20.0387 41.6025 19.7994 41.1813 19.3961 41.0715C18.9929 40.9618 18.5784 41.2049 18.4703 41.6146L15.9445 51.1923C15.7949 51.7595 15.8703 52.3492 16.204 52.8122Z" fill="#9B9B9B"/>
<path id="Vector (Stroke)_8" fill-rule="evenodd" clip-rule="evenodd" d="M76.1545 52.7593C76.1545 53.1835 76.493 53.5273 76.9105 53.5273H78.257C80.1034 53.5273 81.9194 52.052 82.402 50.2216C82.4021 50.2216 82.4021 50.2215 82.4021 50.2215L84.88 40.8255L84.88 40.8255C85.1971 39.623 84.89 38.3741 83.9007 37.6556C83.9007 37.6556 83.9007 37.6555 83.9007 37.6555L79.6621 34.5764L79.6026 21.9355V21.9354C79.5988 21.1494 79.3136 20.4411 78.7903 19.9306C78.2691 19.4219 77.5587 19.1547 76.7801 19.1547H65.3712C64.9537 19.1547 64.6152 19.4986 64.6152 19.9228C64.6152 20.3469 64.9537 20.6908 65.3712 20.6908H76.7801C77.2161 20.6908 77.5361 20.8365 77.7431 21.0385C77.948 21.2385 78.0888 21.5384 78.0907 21.9428C78.0907 21.9429 78.0907 21.9429 78.0907 21.9429L78.1521 34.9764C78.1532 35.2231 78.2709 35.4541 78.4683 35.5976L83.0214 38.9052L83.0215 38.9052C83.3939 39.1757 83.6095 39.7079 83.4196 40.4279C83.4196 40.4279 83.4196 40.4279 83.4196 40.4279L80.9417 49.824L80.9417 49.824C80.6273 51.0163 79.3857 51.9912 78.257 51.9912H76.9105C76.493 51.9912 76.1545 52.3351 76.1545 52.7593Z" fill="#9B9B9B"/>
<path id="Vector (Stroke)_9" fill-rule="evenodd" clip-rule="evenodd" d="M80.3877 41.8137C80.3877 42.2379 80.7261 42.5818 81.1436 42.5818H83.8368C84.2543 42.5818 84.5927 42.2379 84.5927 41.8137C84.5927 41.3895 84.2543 41.0457 83.8368 41.0457H81.1436C80.7261 41.0457 80.3877 41.3895 80.3877 41.8137Z" fill="#9B9B9B"/>
<path id="Vector (Stroke)_10" fill-rule="evenodd" clip-rule="evenodd" d="M58.8423 41.8137C58.8423 42.2379 59.1807 42.5818 59.5982 42.5818H75.7573C76.1748 42.5818 76.5132 42.2379 76.5132 41.8137C76.5132 41.3895 76.1748 41.0457 75.7573 41.0457H59.5982C59.1807 41.0457 58.8423 41.3895 58.8423 41.8137Z" fill="#9B9B9B"/>
<path id="Vector (Stroke)_11" fill-rule="evenodd" clip-rule="evenodd" d="M67.1792 34.6251C67.6942 35.3399 68.5256 35.741 69.4821 35.741H78.9083C79.3258 35.741 79.6642 35.3971 79.6642 34.9729C79.6642 34.5487 79.3258 34.2048 78.9083 34.2048H69.4821C68.9513 34.2048 68.5976 33.9933 68.3991 33.7178C68.1976 33.438 68.0914 33.0016 68.2408 32.4354L69.3231 28.3307C69.3231 28.3308 69.3231 28.3307 69.3231 28.3307C69.6376 27.1386 70.8794 26.1636 72.0078 26.1636H78.7408C79.1583 26.1636 79.4968 25.8198 79.4968 25.3956C79.4968 24.9714 79.1583 24.6275 78.7408 24.6275H72.0078C70.1615 24.6275 68.3456 26.1029 67.8628 27.9331L66.7805 32.0377C66.7804 32.0378 66.7805 32.0377 66.7805 32.0377C66.5312 32.9827 66.6671 33.9145 67.1792 34.6251Z" fill="#9B9B9B"/>
<path id="Vector (Stroke)_12" fill-rule="evenodd" clip-rule="evenodd" d="M12.1191 19.9227C12.1191 30.9256 20.898 39.8455 31.7275 39.8455C42.5569 39.8455 51.3358 30.9256 51.3358 19.9227C51.3358 8.91981 42.5569 -2.67029e-05 31.7275 -2.67029e-05C20.898 -2.67029e-05 12.1191 8.91981 12.1191 19.9227ZM31.7275 38.3093C21.733 38.3093 13.631 30.0773 13.631 19.9227C13.631 9.76818 21.733 1.53609 31.7275 1.53609C41.7219 1.53609 49.8239 9.76818 49.8239 19.9227C49.8239 30.0773 41.7219 38.3093 31.7275 38.3093Z" fill="#9B9B9B"/>
<path id="Vector (Stroke)_13" fill-rule="evenodd" clip-rule="evenodd" d="M28.2788 19.9227C28.2788 21.8581 29.8229 23.4271 31.7279 23.4271C33.6327 23.4271 35.177 21.8581 35.177 19.9227C35.177 17.9873 33.6327 16.4183 31.7279 16.4183C29.8229 16.4183 28.2788 17.9874 28.2788 19.9227ZM31.7279 21.891C30.6579 21.891 29.7907 21.0098 29.7907 19.9227C29.7907 18.8357 30.6579 17.9545 31.7279 17.9545C32.7978 17.9545 33.6651 18.8357 33.6651 19.9227C33.6651 21.0097 32.7978 21.891 31.7279 21.891Z" fill="#9B9B9B"/>
<path id="Vector (Stroke)_14" fill-rule="evenodd" clip-rule="evenodd" d="M33.2971 18.3281C33.5923 18.6281 34.0709 18.6281 34.3661 18.3281L41.6883 10.8887C41.9835 10.5888 41.9835 10.1025 41.6883 9.80254C41.3931 9.50259 40.9145 9.50258 40.6193 9.80252L33.2971 17.2419C33.0019 17.5419 33.0019 18.0282 33.2971 18.3281Z" fill="#9B9B9B"/>
<path id="Vector (Stroke)_15" fill-rule="evenodd" clip-rule="evenodd" d="M25.8069 25.9388C26.1021 26.2387 26.5807 26.2387 26.8759 25.9387L30.2424 22.5181C30.5376 22.2182 30.5376 21.7319 30.2423 21.4319C29.9471 21.132 29.4685 21.132 29.1733 21.432L25.8068 24.8525C25.5116 25.1525 25.5117 25.6388 25.8069 25.9388Z" fill="#9B9B9B"/>
<path id="Vector (Stroke)_16" fill-rule="evenodd" clip-rule="evenodd" d="M31.7276 8.37708C32.1451 8.37708 32.4836 8.0332 32.4836 7.60901V6.24085C32.4836 5.81666 32.1451 5.47279 31.7276 5.47279C31.3101 5.47279 30.9717 5.81666 30.9717 6.24085V7.60901C30.9717 8.0332 31.3101 8.37708 31.7276 8.37708Z" fill="#9B9B9B"/>
<path id="Vector (Stroke)_17" fill-rule="evenodd" clip-rule="evenodd" d="M31.7276 34.3727C32.1451 34.3727 32.4836 34.0288 32.4836 33.6046V32.2365C32.4836 31.8123 32.1451 31.4684 31.7276 31.4684C31.3101 31.4684 30.9717 31.8123 30.9717 32.2365V33.6046C30.9717 34.0288 31.3101 34.3727 31.7276 34.3727Z" fill="#9B9B9B"/>
<path id="Vector (Stroke)_18" fill-rule="evenodd" clip-rule="evenodd" d="M43.0913 19.9227C43.0913 20.3469 43.4298 20.6908 43.8472 20.6908H45.1938C45.6113 20.6908 45.9498 20.3469 45.9498 19.9227C45.9498 19.4985 45.6113 19.1547 45.1938 19.1547H43.8472C43.4298 19.1547 43.0913 19.4985 43.0913 19.9227Z" fill="#9B9B9B"/>
<path id="Vector (Stroke)_19" fill-rule="evenodd" clip-rule="evenodd" d="M17.5059 19.9227C17.5059 20.3469 17.8443 20.6908 18.2618 20.6908H19.6084C20.0259 20.6908 20.3643 20.3469 20.3643 19.9227C20.3643 19.4985 20.0259 19.1547 19.6084 19.1547H18.2618C17.8443 19.1547 17.5059 19.4985 17.5059 19.9227Z" fill="#9B9B9B"/>
<path id="Vector (Stroke)_20" fill-rule="evenodd" clip-rule="evenodd" d="M0 37.7092C0 38.1334 0.338446 38.4773 0.755939 38.4773H14.2219C14.6394 38.4773 14.9778 38.1334 14.9778 37.7092C14.9778 37.285 14.6394 36.9412 14.2219 36.9412H0.755939C0.338446 36.9412 0 37.285 0 37.7092Z" fill="#9B9B9B"/>
<path id="Vector (Stroke)_21" fill-rule="evenodd" clip-rule="evenodd" d="M4.03955 43.1819C4.03955 43.6061 4.378 43.95 4.79549 43.95H12.8751C13.2926 43.95 13.6311 43.6061 13.6311 43.1819C13.6311 42.7577 13.2926 42.4138 12.8751 42.4138H4.79549C4.378 42.4138 4.03955 42.7577 4.03955 43.1819Z" fill="#9B9B9B"/>
<path id="Vector (Stroke)_22" fill-rule="evenodd" clip-rule="evenodd" d="M8.07959 48.6548C8.07959 49.079 8.41804 49.4229 8.83553 49.4229H11.5287C11.9462 49.4229 12.2846 49.079 12.2846 48.6548C12.2846 48.2306 11.9462 47.8867 11.5287 47.8867H8.83553C8.41804 47.8867 8.07959 48.2306 8.07959 48.6548Z" fill="#9B9B9B"/>
</g>
</svg>
