<svg width="15" height="15" viewBox="0 0 15 15" fill="none" xmlns="http://www.w3.org/2000/svg">
<g id="NTL0002">
<g id="Group">
<path id="Vector" d="M11.8903 5.33752C11.8927 5.20776 11.8547 5.08046 11.7816 4.97324C11.7085 4.86601 11.6038 4.78417 11.4821 4.73902C11.3605 4.69388 11.2278 4.68767 11.1024 4.72126C10.977 4.75485 10.8652 4.82657 10.7824 4.9265L7.50838 8.75091L4.23437 4.92414C4.1834 4.85422 4.1185 4.79564 4.04376 4.75207C3.96901 4.7085 3.88604 4.6809 3.8001 4.67101C3.71415 4.66112 3.62708 4.66915 3.54439 4.6946C3.46171 4.72005 3.38519 4.76236 3.31968 4.81886C3.25416 4.87537 3.20107 4.94484 3.16376 5.0229C3.12644 5.10095 3.10571 5.18589 3.10288 5.27236C3.10004 5.35883 3.11516 5.44495 3.14727 5.52528C3.17939 5.60562 3.22782 5.67842 3.28949 5.7391L7.02886 10.1139C7.08762 10.1827 7.16061 10.2379 7.24278 10.2758C7.32495 10.3137 7.41436 10.3333 7.50484 10.3333C7.59532 10.3333 7.68473 10.3137 7.7669 10.2758C7.84907 10.2379 7.92206 10.1827 7.98082 10.1139L11.732 5.7391C11.8307 5.62824 11.8868 5.48591 11.8903 5.33752Z" fill="white"/>
</g>
</g>
</svg>
