<svg width="72" height="45" viewBox="0 0 72 45" fill="none" xmlns="http://www.w3.org/2000/svg">
<g id="Group 2981">
<g id="Group">
<path id="Vector" d="M69.4851 4.1315C64.5337 1.24571 58.9077 2.77864 55.0606 4.57257L43.5924 9.92029L23.8686 0L12.1225 0.504655L28.4098 17.0164L18.0299 21.9472L7.23057 17.8372L0 21.2087L6.53443 29.323C5.84407 30.1466 5.21847 31.3062 5.78641 32.5242C6.5282 34.1148 8.72068 34.9165 12.317 34.9163C13.0545 34.9163 13.8511 34.8827 14.7061 34.8151C18.6539 34.5033 22.9339 33.4956 25.6101 32.2477L66.6044 13.1317C70.1451 11.4805 71.9088 9.74673 71.9963 7.83097C72.0416 6.83737 71.6428 5.38862 69.4851 4.1315ZM65.3514 10.4451L24.3573 29.5612C22.0772 30.6245 18.3339 31.5154 14.8207 31.8308C11.2299 32.1531 9.30996 31.7484 8.66999 31.4047C8.80175 31.2243 9.04777 30.9409 9.50174 30.5413L10.5665 29.6042L4.68136 22.2963L7.34706 21.0531L18.1579 25.1678L33.4486 17.9042L18.924 3.17925L23.2252 2.99443L43.5432 13.2134L56.313 7.25888C60.9767 5.0842 64.906 4.89389 67.9924 6.69227L67.9925 6.69242C68.7702 7.1455 69.042 7.54077 69.0349 7.6958C69.0346 7.70647 68.9455 8.76944 65.3514 10.4451Z" fill="#9B9B9B"/>
</g>
<rect id="Rectangle 579" x="3.09375" y="41.38" width="65.6714" height="3.5156" rx="1.7578" fill="#9B9B9B"/>
</g>
</svg>
