<svg width="10" height="16" viewBox="0 0 10 16" fill="none" xmlns="http://www.w3.org/2000/svg">
<path d="M8.36594 0H1.63407C1.48107 -7.67311e-08 1.32957 0.0301552 1.18823 0.088742C1.04689 0.147329 0.918478 0.233198 0.810344 0.341441C0.702209 0.449685 0.616468 0.578179 0.558023 0.719578C0.499577 0.860978 0.469574 1.01251 0.469727 1.16551V14.8357C0.469727 15.4782 0.989806 16 1.63407 16H8.36594C8.6747 15.9998 8.97077 15.8771 9.18909 15.6588C9.40742 15.4405 9.53014 15.1444 9.53029 14.8357V1.16551C9.53029 0.856601 9.40766 0.560325 9.18933 0.341783C8.97101 0.12324 8.67486 0.000309066 8.36594 0ZM3.33891 0.70782H6.66228C6.74624 0.70782 6.81445 0.833175 6.81445 0.988266C6.81445 1.14336 6.74624 1.2693 6.66228 1.2693H3.33891C3.25436 1.2693 3.18731 1.14336 3.18731 0.988266C3.18731 0.833175 3.25436 0.70782 3.33891 0.70782ZM5.00059 14.8496C4.80343 14.8496 4.61435 14.7713 4.47494 14.6319C4.33553 14.4925 4.25721 14.3034 4.25721 14.1063C4.25721 13.9091 4.33553 13.72 4.47494 13.5806C4.61435 13.4412 4.80343 13.3629 5.00059 13.3629C5.19775 13.3629 5.38683 13.4412 5.52625 13.5806C5.66566 13.72 5.74398 13.9091 5.74398 14.1063C5.74398 14.3034 5.66566 14.4925 5.52625 14.6319C5.38683 14.7713 5.19775 14.8496 5.00059 14.8496ZM8.65805 12.3023H1.34255V1.96662H8.65805V12.3023Z" fill="#32332E"/>
</svg>
