<svg width="21" height="21" viewBox="0 0 21 21" fill="none" xmlns="http://www.w3.org/2000/svg">
<g id="NTL0039">
<g id="Group">
<path id="Vector" d="M18.7525 14.3808C18.7043 14.3426 15.2039 11.8195 14.2431 12.0006C13.7845 12.0817 13.5223 12.3945 12.996 13.0208C12.9113 13.1219 12.7079 13.3641 12.5497 13.5364C12.2171 13.428 11.8927 13.2959 11.5789 13.1413C9.95928 12.3528 8.65067 11.0442 7.86216 9.42455C7.70744 9.1108 7.57539 8.78638 7.46703 8.45376C7.6399 8.295 7.88216 8.09155 7.98564 8.00453C8.60892 7.48121 8.92233 7.21896 9.00347 6.75914C9.16988 5.80658 6.64853 2.28211 6.62207 2.25036C6.50767 2.08694 6.35838 1.95099 6.185 1.85234C6.01161 1.7537 5.81846 1.69483 5.61953 1.68C4.59759 1.68 1.67993 5.46496 1.67993 6.10235C1.67993 6.13939 1.73344 9.90494 6.37688 14.6283C11.0956 19.2665 14.8605 19.32 14.8976 19.32C15.5356 19.32 19.3199 16.4023 19.3199 15.3804C19.3053 15.1822 19.2467 14.9897 19.1486 14.8168C19.0505 14.6439 18.9152 14.495 18.7525 14.3808Z" fill="#606060"/>
</g>
</g>
</svg>
