<svg width="40" height="40" viewBox="0 0 40 40" fill="none" xmlns="http://www.w3.org/2000/svg">
<g id="Group 2987">
<rect id="Rectangle 580" width="40" height="40" rx="20" fill="#E0E0E0"/>
<g id="Group 2988">
<path id="Vector" d="M22.9375 10.4129C22.8124 9.92096 22.5129 9.5097 22.0943 9.2551C21.2302 8.72942 20.1211 9.04237 19.622 9.95308L19.3434 10.4614L19.0648 9.953C18.5658 9.04253 17.4568 8.72942 16.5925 9.25502C15.7283 9.78077 15.4311 10.9492 15.93 11.8598L17.2535 14.2749L12.3701 23.1863H8.80988C7.81191 23.1863 7 24.0417 7 25.0932C7 26.1446 7.81191 27 8.80988 27H22.5549L20.4649 23.1863H16.5499L22.7567 11.8599C22.9984 11.4188 23.0627 10.9049 22.9375 10.4129Z" fill="#828282"/>
<path id="Vector_2" d="M30.1775 22.8237H26.5924L22.5167 16L20.4123 19.5234L26.7404 30.1182C26.9838 30.5258 27.3767 30.8173 27.8471 30.9392C28.0041 30.9798 28.1634 31 28.3217 31C28.6375 31 28.9492 30.9199 29.2301 30.7632C30.1004 30.2774 30.3996 29.1978 29.8971 28.3567L28.6968 26.3472H30.1775C31.1824 26.3472 32 25.5569 32 24.5855C32 23.6141 31.1824 22.8237 30.1775 22.8237ZM9.60224 27.7565L9.24379 28.3567C8.74136 29.1979 9.04061 30.2775 9.9109 30.7632C10.1869 30.9176 10.5002 30.9989 10.8191 30.9988C11.4494 30.9988 12.0633 30.6828 12.4005 30.1183L13.8112 27.7565H9.60224Z" fill="#828282"/>
</g>
</g>
</svg>
