<svg width="17" height="17" viewBox="0 0 17 17" fill="none" xmlns="http://www.w3.org/2000/svg">
<path d="M13.24 3.8432C12.1499 2.26543 10.4221 1.36035 8.50016 1.36035C6.57819 1.36035 4.85045 2.26543 3.76029 3.8432C2.67548 5.413 2.425 7.4004 3.08891 9.15626C3.26648 9.63575 3.54877 10.1016 3.9259 10.5382L8.12004 15.4646C8.16688 15.5197 8.22514 15.5639 8.29077 15.5943C8.35641 15.6246 8.42785 15.6403 8.50016 15.6404C8.57247 15.6403 8.64392 15.6246 8.70955 15.5943C8.77519 15.5639 8.83344 15.5197 8.88028 15.4646L13.0732 10.5395C13.4521 10.1004 13.734 9.63508 13.9101 9.15944C14.5753 7.4004 14.3248 5.413 13.24 3.8432ZM12.9751 8.80974C12.8393 9.17673 12.6176 9.53956 12.3165 9.88855C12.3157 9.88939 12.3148 9.89023 12.3141 9.89123L8.50016 14.371L4.68383 9.88841C4.38292 9.53972 4.16122 9.17692 4.02408 8.80642C3.47502 7.3543 3.68339 5.71109 4.58164 4.41108C5.4827 3.10692 6.91104 2.35895 8.50016 2.35895C10.0893 2.35895 11.5174 3.10689 12.4185 4.41108C13.3169 5.71109 13.5255 7.3543 12.9751 8.80974Z" fill="#212F3B"/>
<path d="M8.50019 4.32324C6.95851 4.32324 5.7041 5.57748 5.7041 7.11933C5.7041 8.66118 6.95834 9.91542 8.50019 9.91542C10.042 9.91542 11.2963 8.66118 11.2963 7.11933C11.2963 5.57765 10.0419 4.32324 8.50019 4.32324ZM8.50019 8.9168C7.50907 8.9168 6.7027 8.11043 6.7027 7.1193C6.7027 6.12818 7.50907 5.32181 8.50019 5.32181C9.49131 5.32181 10.2977 6.12818 10.2977 7.1193C10.2977 8.11043 9.49131 8.9168 8.50019 8.9168Z" fill="#212F3B"/>
</svg>
