<svg width="40" height="40" viewBox="0 0 40 40" fill="none" xmlns="http://www.w3.org/2000/svg">
<rect width="40" height="40" rx="15" fill="#FDD800"/>
<g clip-path="url(#clip0_414_7555)">
<path d="M20.5 9C15.7448 9 11.875 12.8966 11.875 17.6873C11.875 24.4943 19.6892 31.5228 20.0218 31.8179C20.1532 31.9356 20.3234 32.0007 20.4998 32.0009C20.6762 32.0011 20.8465 31.9363 20.9782 31.8189C21.3107 31.5228 29.125 24.4943 29.125 17.6873C29.125 12.8966 25.2552 9 20.5 9ZM20.5 22.4167C17.8579 22.4167 15.7083 20.2671 15.7083 17.625C15.7083 14.9829 17.8579 12.8333 20.5 12.8333C23.1421 12.8333 25.2917 14.9829 25.2917 17.625C25.2917 20.2671 23.1421 22.4167 20.5 22.4167Z" fill="#001529"/>
</g>
<defs>
<clipPath id="clip0_414_7555">
<rect width="23" height="23" fill="white" transform="translate(9 9)"/>
</clipPath>
</defs>
</svg>
