<svg width="25" height="26" viewBox="0 0 25 26" fill="none" xmlns="http://www.w3.org/2000/svg">
<g id="NTL0030">
<g id="Group">
<path id="Vector" d="M22.9768 7.45998V7.41362C22.9537 7.36726 22.9537 7.3209 22.9305 7.27455V7.25137C22.9073 7.20501 22.8609 7.15865 22.8378 7.13547L22.8146 7.11229C22.7914 7.08912 22.745 7.06594 22.7219 7.04276L22.6987 7.01958H22.6755L22.6523 6.9964L12.8013 2.10567C12.6159 2.01295 12.3841 2.01295 12.1755 2.10567L8.86093 3.75137L18.7583 8.82753L18.7815 8.85071C18.8046 8.85071 18.8046 8.87388 18.8278 8.87388C18.851 8.89706 18.851 8.92024 18.8742 8.94342V14.3904C18.8742 14.4832 18.8278 14.5527 18.7583 14.5991L16.7649 15.6421C16.649 15.7116 16.5099 15.6653 16.4404 15.5494C16.4172 15.5262 16.4172 15.4798 16.4172 15.4335V10.1719L6.40398 5.00302L6.3808 4.97984L2.37086 6.97322L2.34768 6.9964H2.3245L2.30132 7.01958C2.27815 7.04276 2.23179 7.06594 2.20861 7.08912L2.18543 7.11229C2.13907 7.15865 2.11589 7.20501 2.06954 7.25137V7.27455C2.04636 7.3209 2.02318 7.36726 2.02318 7.41362V7.45998C2.02318 7.50633 2 7.52951 2 7.57587V18.4004C2 18.6553 2.13907 18.9103 2.39404 19.0262L12.1523 23.8938C12.2914 23.9633 12.4536 23.9865 12.6159 23.9401L12.6623 23.9169C12.7086 23.9169 12.7318 23.8938 12.7782 23.8706L22.606 19.003C22.8378 18.8871 23 18.6553 23 18.3772V7.57587C22.9768 7.52951 22.9768 7.50633 22.9768 7.45998Z" fill="#606060"/>
</g>
</g>
</svg>
