<svg width="33" height="33" viewBox="0 0 33 33" fill="none" xmlns="http://www.w3.org/2000/svg">
<circle cx="16.5001" cy="16.5" r="16.5" fill="#FFF6BE"/>
<circle cx="16.5001" cy="16.5" r="13.5" fill="#FDD800"/>
<path d="M24.4625 12.2891V12.2539C24.4449 12.2186 24.4449 12.1834 24.4273 12.1482V12.1306C24.4097 12.0953 24.3745 12.0601 24.3568 12.0425L24.3392 12.0249C24.3216 12.0073 24.2864 11.9896 24.2688 11.972L24.2511 11.9544H24.2335L24.2159 11.9368L16.7292 8.21984C16.5882 8.14938 16.4121 8.14938 16.2535 8.21984L13.7344 9.47057L21.2564 13.3285L21.2741 13.3461C21.2917 13.3461 21.2917 13.3637 21.3093 13.3637C21.3269 13.3813 21.3269 13.3989 21.3445 13.4165V17.5563C21.3445 17.6267 21.3093 17.6796 21.2564 17.7148L19.7415 18.5075C19.6534 18.5604 19.5477 18.5251 19.4949 18.4371C19.4772 18.4194 19.4772 18.3842 19.4772 18.349V14.3502L11.8672 10.4218L11.8495 10.4042L8.802 11.9192L8.78438 11.9368H8.76676L8.74915 11.9544C8.73153 11.972 8.6963 11.9896 8.67868 12.0073L8.66107 12.0249C8.62584 12.0601 8.60822 12.0953 8.57299 12.1306V12.1482C8.55537 12.1834 8.53776 12.2186 8.53776 12.2539V12.2891C8.53776 12.3243 8.52014 12.342 8.52014 12.3772V20.6038C8.52014 20.7976 8.62584 20.9914 8.81961 21.0794L16.2359 24.7788C16.3416 24.8316 16.4649 24.8493 16.5882 24.814L16.6235 24.7964C16.6587 24.7964 16.6763 24.7788 16.7115 24.7612L24.1807 21.0618C24.3568 20.9738 24.4802 20.7976 24.4802 20.5862V12.3772C24.4625 12.342 24.4625 12.3243 24.4625 12.2891Z" fill="black"/>
</svg>
