<svg width="16" height="16" viewBox="0 0 16 16" fill="none" xmlns="http://www.w3.org/2000/svg">
<path d="M14.2875 10.9568C14.2507 10.9277 11.5838 9.00534 10.8518 9.14333C10.5023 9.20515 10.3025 9.44349 9.90155 9.92061C9.83703 9.99766 9.68203 10.1822 9.56151 10.3135C9.30812 10.2309 9.06095 10.1302 8.82187 10.0124C7.58786 9.41168 6.59082 8.41464 5.99006 7.18064C5.87217 6.94159 5.77156 6.69441 5.689 6.44099C5.82071 6.32003 6.00529 6.16502 6.08414 6.09872C6.55902 5.7 6.7978 5.50019 6.85963 5.14985C6.98641 4.42409 5.06539 1.73878 5.04523 1.71459C4.95807 1.59008 4.84432 1.4865 4.71221 1.41134C4.58011 1.33618 4.43295 1.29133 4.28139 1.28003C3.50276 1.28003 1.27979 4.16381 1.27979 4.64944C1.27979 4.67766 1.32055 7.54665 4.85841 11.1454C8.45361 14.6793 11.3222 14.72 11.3504 14.72C11.8365 14.72 14.7198 12.4971 14.7198 11.7184C14.7086 11.5674 14.664 11.4207 14.5893 11.289C14.5145 11.1573 14.4114 11.0438 14.2875 10.9568Z" fill="#32332E"/>
</svg>
