<svg width="17" height="17" viewBox="0 0 17 17" fill="none" xmlns="http://www.w3.org/2000/svg">
<path d="M5.88203 1.36035C5.37706 1.36035 4.89277 1.56095 4.5357 1.91802C4.17863 2.27509 3.97803 2.75938 3.97803 3.26435V8.97635C3.97803 9.10259 4.02818 9.22367 4.11744 9.31293C4.20671 9.4022 4.32778 9.45235 4.45403 9.45235C4.58027 9.45235 4.70134 9.4022 4.79061 9.31293C4.87988 9.22367 4.93003 9.10259 4.93003 8.97635V3.26435C4.93003 3.01187 5.03033 2.76972 5.20886 2.59119C5.3874 2.41265 5.62954 2.31235 5.88203 2.31235H11.118C11.3705 2.31235 11.6127 2.41265 11.7912 2.59119C11.9697 2.76972 12.07 3.01187 12.07 3.26435V3.74035C12.07 3.86659 12.1202 3.98767 12.2094 4.07693C12.2987 4.1662 12.4198 4.21635 12.546 4.21635C12.6723 4.21635 12.7933 4.1662 12.8826 4.07693C12.9719 3.98767 13.022 3.86659 13.022 3.74035V3.26435C13.022 2.75938 12.8214 2.27509 12.4644 1.91802C12.1073 1.56095 11.623 1.36035 11.118 1.36035H5.88203ZM13.022 6.12035C13.022 5.99411 12.9719 5.87304 12.8826 5.78377C12.7933 5.6945 12.6723 5.64435 12.546 5.64435C12.4198 5.64435 12.2987 5.6945 12.2094 5.78377C12.1202 5.87304 12.07 5.99411 12.07 6.12035V13.7364C12.07 13.9888 11.9697 14.231 11.7912 14.4095C11.6127 14.5881 11.3705 14.6884 11.118 14.6884H5.88203C5.62954 14.6884 5.3874 14.5881 5.20886 14.4095C5.03033 14.231 4.93003 13.9888 4.93003 13.7364V11.3564C4.93003 11.2301 4.87988 11.109 4.79061 11.0198C4.70134 10.9305 4.58027 10.8804 4.45403 10.8804C4.32778 10.8804 4.20671 10.9305 4.11744 11.0198C4.02818 11.109 3.97803 11.2301 3.97803 11.3564V13.7364C3.97803 14.2413 4.17863 14.7256 4.5357 15.0827C4.89277 15.4398 5.37706 15.6404 5.88203 15.6404H11.118C11.623 15.6404 12.1073 15.4398 12.4644 15.0827C12.8214 14.7256 13.022 14.2413 13.022 13.7364V6.12035Z" fill="#212F3B"/>
<path d="M8.97602 3.74065C8.97602 3.86689 8.92587 3.98796 8.8366 4.07723C8.74734 4.1665 8.62626 4.21665 8.50002 4.21665C8.37378 4.21665 8.25271 4.1665 8.16344 4.07723C8.07417 3.98796 8.02402 3.86689 8.02402 3.74065C8.02402 3.61441 8.07417 3.49333 8.16344 3.40407C8.25271 3.3148 8.37378 3.26465 8.50002 3.26465C8.62626 3.26465 8.74734 3.3148 8.8366 3.40407C8.92587 3.49333 8.97602 3.61441 8.97602 3.74065ZM9.92802 13.0226C9.92802 13.1489 9.87787 13.27 9.7886 13.3592C9.69934 13.4485 9.57826 13.4986 9.45202 13.4986H7.54802C7.42178 13.4986 7.30071 13.4485 7.21144 13.3592C7.12217 13.27 7.07202 13.1489 7.07202 13.0226C7.07202 12.8964 7.12217 12.7753 7.21144 12.6861C7.30071 12.5968 7.42178 12.5466 7.54802 12.5466H9.45202C9.57826 12.5466 9.69934 12.5968 9.7886 12.6861C9.87787 12.7753 9.92802 12.8964 9.92802 13.0226Z" fill="#212F3B"/>
</svg>
