<svg width="25" height="25" viewBox="0 0 25 25" fill="none" xmlns="http://www.w3.org/2000/svg">
<path d="M21.875 13.5416C21.5987 13.5416 21.3338 13.6514 21.1384 13.8467C20.9431 14.0421 20.8333 14.307 20.8333 14.5833V17.7083C20.8333 18.5371 20.5041 19.332 19.918 19.918C19.332 20.5041 18.5371 20.8333 17.7083 20.8333H7.29165C6.46285 20.8333 5.66799 20.5041 5.08194 19.918C4.49589 19.332 4.16665 18.5371 4.16665 17.7083V7.29165C4.16665 6.46285 4.49589 5.66799 5.08194 5.08194C5.66799 4.49589 6.46285 4.16665 7.29165 4.16665H12.5C12.7762 4.16665 13.0412 4.0569 13.2365 3.86155C13.4319 3.6662 13.5416 3.40125 13.5416 3.12498C13.5416 2.84871 13.4319 2.58376 13.2365 2.38841C13.0412 2.19306 12.7762 2.08331 12.5 2.08331H7.29165C5.91082 2.08497 4.58702 2.63423 3.61063 3.61063C2.63423 4.58702 2.08497 5.91082 2.08331 7.29165V17.7083C2.08497 19.0891 2.63423 20.4129 3.61063 21.3893C4.58702 22.3657 5.91082 22.915 7.29165 22.9166H17.7083C19.0891 22.915 20.4129 22.3657 21.3893 21.3893C22.3657 20.4129 22.915 19.0891 22.9166 17.7083V14.5833C22.9166 14.307 22.8069 14.0421 22.6116 13.8467C22.4162 13.6514 22.1512 13.5416 21.875 13.5416Z" fill="black"/>
<path d="M7.30207 13.6895C7.33362 13.9092 7.4345 14.1131 7.59002 14.2714C7.74554 14.4298 7.94757 14.5343 8.16665 14.5698C8.22174 14.5789 8.27748 14.5834 8.33332 14.5833C8.52689 14.5834 8.71666 14.5295 8.88134 14.4278C9.04602 14.326 9.17908 14.1804 9.26561 14.0073C10.5583 11.4208 13.9979 11.2656 15.625 11.3625V13.5416C15.625 13.7476 15.6861 13.949 15.8006 14.1202C15.9151 14.2915 16.0777 14.425 16.2681 14.5038C16.4584 14.5826 16.6678 14.6032 16.8698 14.5631C17.0718 14.5229 17.2574 14.4237 17.4031 14.2781L22.6114 9.06976C22.7151 8.96619 22.7957 8.84194 22.848 8.70511C22.9003 8.56827 22.9232 8.42194 22.9152 8.27566C22.9071 8.12939 22.8683 7.98645 22.8012 7.8562C22.7342 7.72595 22.6404 7.6113 22.526 7.51976L17.3177 3.35309C17.1645 3.23041 16.9797 3.15352 16.7847 3.13128C16.5897 3.10904 16.3923 3.14235 16.2154 3.22738C16.0385 3.31241 15.8892 3.44569 15.7848 3.61186C15.6803 3.77804 15.6249 3.97035 15.625 4.16663V6.16455C12.7083 6.02809 10.4792 6.72184 9.01978 8.22601C8.36473 8.96429 7.87309 9.83266 7.57707 10.7742C7.28105 11.7158 7.18734 12.7092 7.30207 13.6895Z" fill="black"/>
</svg>
