<svg width="76" height="76" viewBox="0 0 76 76" fill="none" xmlns="http://www.w3.org/2000/svg">
<g id="Frame">
<g id="Group">
<path id="Vector" d="M38.002 2.37427C34.1242 2.37427 30.372 3.72973 27.3873 6.19828C27.2624 6.29636 27.1584 6.41846 27.0814 6.55738C27.0045 6.6963 26.9561 6.84923 26.9392 7.00714C26.9223 7.16505 26.9372 7.32474 26.983 7.4768C27.0288 7.62886 27.1046 7.77021 27.2059 7.8925C27.3072 8.0148 27.432 8.11557 27.5729 8.18886C27.7138 8.26216 27.8679 8.3065 28.0262 8.31927C28.1845 8.33204 28.3438 8.31298 28.4946 8.26321C28.6454 8.21344 28.7847 8.13397 28.9043 8.0295C30.9864 6.30014 33.518 5.1997 36.2028 4.857C38.8876 4.51431 41.6145 4.94355 44.0642 6.09447C46.5139 7.24539 48.5851 9.07036 50.0352 11.3557C51.4853 13.6411 52.2544 16.2922 52.2523 18.9988C52.2547 20.8709 51.8877 22.725 51.1724 24.455C50.4571 26.185 49.4075 27.7569 48.0838 29.0806C46.7601 30.4043 45.1882 31.4539 43.4582 32.1692C41.7282 32.8845 39.8741 33.2515 38.002 33.2491C35.4451 33.2492 32.9352 32.5613 30.7356 31.2576C28.536 29.9538 26.7277 28.0822 25.5003 25.8391C24.2729 23.596 23.6717 21.0639 23.7597 18.5085C23.8477 15.953 24.6216 13.4683 26.0004 11.3149C26.0943 11.1836 26.1604 11.0346 26.1948 10.8769C26.2293 10.7192 26.2312 10.5562 26.2006 10.3977C26.17 10.2392 26.1075 10.0886 26.0168 9.95511C25.9261 9.82158 25.8092 9.70791 25.6732 9.621C25.5372 9.53409 25.385 9.47577 25.2257 9.44959C25.0665 9.42342 24.9035 9.42993 24.7469 9.46873C24.5902 9.50753 24.4431 9.57781 24.3144 9.67529C24.1858 9.77278 24.0783 9.89542 23.9986 10.0358C22.3919 12.5484 21.4905 15.4469 21.3888 18.4276C21.2872 21.4082 21.989 24.3614 23.4208 26.9777C24.8526 29.5939 26.9617 31.7769 29.527 33.298C32.0924 34.8191 35.0196 35.6223 38.002 35.6234C47.1671 35.6234 54.6266 28.1684 54.6266 18.9988C54.6266 9.8293 47.1671 2.37427 38.002 2.37427ZM38.002 7.11838C37.4051 7.11838 36.8127 7.51335 36.8127 8.30777V10.8661C34.7795 11.4047 33.2535 13.2539 33.2535 15.4441C33.2535 18.0563 35.3944 20.2017 38.0065 20.2017C39.3306 20.2017 40.3719 21.2475 40.3719 22.5715C40.3719 23.8956 39.3306 24.9503 38.0065 24.9503C37.6935 24.9527 37.3831 24.8928 37.0934 24.7741C36.8037 24.6554 36.5405 24.4803 36.3192 24.2589C36.0978 24.0375 35.9227 23.7743 35.804 23.4847C35.6853 23.195 35.6254 22.8846 35.6278 22.5715C35.6278 22.2561 35.5024 21.9535 35.2794 21.7305C35.0563 21.5074 34.7538 21.3821 34.4384 21.3821C34.1229 21.3821 33.8204 21.5074 33.5973 21.7305C33.3743 21.9535 33.249 22.2561 33.249 22.5715C33.249 24.7708 34.775 26.6199 36.8127 27.1496V29.6899C36.8127 31.2743 39.1914 31.2743 39.1914 29.6899V27.154C40.2055 26.8891 41.1036 26.2967 41.7464 25.4688C42.3892 24.641 42.7407 23.6241 42.7462 22.576C42.7462 21.3173 42.2474 20.1099 41.3591 19.2182C40.4707 18.3265 39.2652 17.8232 38.0065 17.8184C36.678 17.8184 35.6278 16.7682 35.6278 15.4396C35.6278 14.1111 36.678 13.0653 38.0065 13.0653C39.3306 13.0653 40.3719 14.1156 40.3719 15.4441C40.3619 15.6062 40.3852 15.7685 40.4404 15.9212C40.4955 16.0739 40.5813 16.2137 40.6925 16.332C40.8038 16.4502 40.938 16.5445 41.087 16.6089C41.236 16.6733 41.3967 16.7066 41.559 16.7066C41.7214 16.7066 41.882 16.6733 42.031 16.6089C42.18 16.5445 42.3143 16.4502 42.4255 16.332C42.5367 16.2137 42.6225 16.0739 42.6777 15.9212C42.7328 15.7685 42.7561 15.6062 42.7462 15.4441C42.7462 13.2449 41.2246 11.3912 39.187 10.8616V8.30328C39.187 7.50886 38.5945 7.11838 38.002 7.11838ZM68.1094 32.2976C66.6732 32.2976 65.2279 32.8497 64.1373 33.9403L57.1715 40.9061C56.0045 42.0282 57.7325 43.7517 58.8501 42.5847L65.8159 35.6234C66.1154 35.3185 66.4727 35.0763 66.8669 34.911C67.2611 34.7456 67.6842 34.6605 68.1117 34.6605C68.5391 34.6605 68.9623 34.7456 69.3564 34.911C69.7506 35.0763 70.1079 35.3185 70.4074 35.6234C70.6969 35.8987 70.9219 36.2346 71.0663 36.6071C71.2106 36.9795 71.2707 37.3793 71.2422 37.7778C71.2108 38.5902 70.8787 39.5282 70.2773 40.372C68.0107 43.5901 62.9255 50.9464 60.2056 54.8871C58.1185 57.9077 55.5871 59.3754 52.2523 59.3754H32.0641C29.9052 59.3754 28.4465 60.3134 27.3424 61.2874L11.5257 45.4707C11.416 45.3604 11.2856 45.2728 11.1419 45.2131C10.9983 45.1533 10.8442 45.1226 10.6886 45.1226C10.5331 45.1226 10.379 45.1533 10.2354 45.2131C10.0917 45.2728 9.96127 45.3604 9.85157 45.4707L2.72419 52.6026C2.61291 52.7131 2.5246 52.8446 2.46434 52.9894C2.40407 53.1342 2.37305 53.2895 2.37305 53.4464C2.37305 53.6032 2.40407 53.7585 2.46434 53.9033C2.5246 54.0482 2.61291 54.1796 2.72419 54.2902L21.732 73.2846C22.1943 73.7424 22.9439 73.7424 23.4062 73.2846L30.5291 66.1572C30.7497 65.9345 30.8735 65.6336 30.8735 65.3201C30.8735 65.0066 30.7497 64.7058 30.5291 64.483L29.0031 62.957C29.4008 62.5539 29.8788 62.2388 30.4061 62.0324C30.9335 61.8259 31.4983 61.7327 32.0641 61.7587H52.2523C56.3367 61.7587 59.7433 59.7389 62.158 56.2381C64.8779 52.3019 69.9676 44.9366 72.2162 41.7409C73.0375 40.583 73.5672 39.2455 73.621 37.8631C73.6503 37.1397 73.5294 36.4181 73.266 35.7437C73.0026 35.0693 72.6024 34.4568 72.0905 33.9448C71.5675 33.4231 70.9465 33.0098 70.2634 32.7287C69.5802 32.4475 68.8482 32.3041 68.1094 32.3066V32.2976ZM24.9412 40.3765C20.5067 40.3765 17.7599 42.4097 15.6055 44.4833C14.4521 45.5784 16.1127 47.3064 17.2527 46.1933C19.2725 44.2499 21.189 42.7553 24.9412 42.7553H49.878C51.8708 42.7553 53.4417 44.3262 53.4417 46.3145C53.4417 48.3118 51.8708 49.8782 49.878 49.8782H36.8171C35.2103 49.8558 35.2103 52.2749 36.8171 52.257H49.878C53.1455 52.257 55.816 49.5865 55.816 46.3145C55.816 43.047 53.1455 40.381 49.878 40.381L24.9412 40.3765ZM10.6909 47.9976L28.0156 65.3224L22.5714 70.7621L5.2466 53.4374L10.6909 47.9976Z" fill="#9B9B9B"/>
</g>
</g>
</svg>
