<svg width="40" height="40" viewBox="0 0 40 40" fill="none" xmlns="http://www.w3.org/2000/svg">
<rect width="40" height="40" rx="15" fill="#FDD800"/>
<g clip-path="url(#clip0_414_7557)">
<path d="M31.2185 20.0973L29.501 16.2116C29.4408 16.0738 29.342 15.9564 29.2165 15.8736C29.091 15.7908 28.9441 15.7463 28.7938 15.7453H24.6361L24.8847 13.4993C24.897 13.3903 24.886 13.2799 24.8525 13.1755C24.819 13.071 24.7638 12.9748 24.6905 12.8932C24.6178 12.8127 24.5291 12.7483 24.4301 12.7041C24.331 12.6599 24.2238 12.637 24.1154 12.6367H13.4141C13.208 12.6367 13.0103 12.7186 12.8646 12.8643C12.7188 13.0101 12.637 13.2078 12.637 13.4139C12.637 13.62 12.7188 13.8176 12.8646 13.9634C13.0103 14.1091 13.208 14.191 13.4141 14.191H17.2998C17.5059 14.191 17.7036 14.2729 17.8494 14.4186C17.9951 14.5644 18.077 14.762 18.077 14.9681C18.077 15.1743 17.9951 15.3719 17.8494 15.5177C17.7036 15.6634 17.5059 15.7453 17.2998 15.7453H11.8598C11.6537 15.7453 11.456 15.8272 11.3103 15.9729C11.1646 16.1187 11.0827 16.3163 11.0827 16.5224C11.0827 16.7285 11.1646 16.9262 11.3103 17.072C11.456 17.2177 11.6537 17.2996 11.8598 17.2996H19.6313C19.8374 17.2996 20.035 17.3815 20.1808 17.5272C20.3265 17.6729 20.4084 17.8706 20.4084 18.0767C20.4084 18.2828 20.3265 18.4805 20.1808 18.6262C20.035 18.772 19.8374 18.8539 19.6313 18.8539H14.1913C13.9851 18.8539 13.7875 18.9357 13.6417 19.0815C13.496 19.2272 13.4141 19.4249 13.4141 19.631C13.4141 19.8371 13.496 20.0348 13.6417 20.1805C13.7875 20.3263 13.9851 20.4081 14.1913 20.4081H17.2998C17.5059 20.4081 17.7036 20.49 17.8494 20.6358C17.9951 20.7815 18.077 20.9792 18.077 21.1853C18.077 21.3914 17.9951 21.5891 17.8494 21.7348C17.7036 21.8806 17.5059 21.9624 17.2998 21.9624H11.0827C10.8766 21.9624 10.6789 22.0443 10.5332 22.1901C10.3874 22.3358 10.3055 22.5335 10.3055 22.7396C10.3055 22.9457 10.3874 23.1434 10.5332 23.2891C10.6789 23.4348 10.8766 23.5167 11.0827 23.5167H12.637C12.8431 23.5167 13.0408 23.5986 13.1865 23.7443C13.3322 23.8901 13.4141 24.0878 13.4141 24.2939C13.4141 24.5 13.3322 24.6976 13.1865 24.8434C13.0408 24.9891 12.8431 25.071 12.637 25.071H11.8598C11.6537 25.071 11.456 25.1529 11.3103 25.2986C11.1646 25.4444 11.0827 25.642 11.0827 25.8481C11.0827 26.0543 11.1646 26.2519 11.3103 26.3977C11.456 26.5434 11.6537 26.6253 11.8598 26.6253H14.0747C14.1586 26.953 14.3183 27.2565 14.541 27.5112C14.7296 27.7222 14.9608 27.8908 15.2194 28.006C15.4779 28.1212 15.7578 28.1803 16.0409 28.1796C16.5198 28.1659 16.984 28.0111 17.3752 27.7346C17.7665 27.4581 18.0674 27.0722 18.2402 26.6253H24.1775C24.2615 26.953 24.4212 27.2565 24.6438 27.5112C24.8325 27.7222 25.0637 27.8908 25.3222 28.006C25.5807 28.1212 25.8607 28.1803 26.1437 28.1796C26.6226 28.1659 27.0868 28.0111 27.4781 27.7346C27.8694 27.4581 28.1703 27.0722 28.343 26.6253H29.8973C30.0894 26.6265 30.2752 26.5564 30.4187 26.4287C30.5622 26.301 30.6533 26.1246 30.6745 25.9336L31.2729 20.4936C31.2942 20.359 31.2752 20.2212 31.2185 20.0973ZM16.0409 26.6253C15.9764 26.6281 15.9122 26.6162 15.853 26.5907C15.7937 26.5651 15.7411 26.5265 15.6989 26.4776C15.6379 26.4022 15.5933 26.3148 15.5679 26.2212C15.5424 26.1275 15.5368 26.0296 15.5513 25.9336C15.5711 25.7154 15.6653 25.5107 15.8181 25.3536C15.9709 25.1966 16.173 25.0968 16.3906 25.071C16.455 25.0682 16.5193 25.0801 16.5785 25.1056C16.6377 25.1312 16.6904 25.1698 16.7325 25.2187C16.7935 25.2941 16.8382 25.3815 16.8636 25.4751C16.889 25.5688 16.8946 25.6667 16.8802 25.7627C16.8603 25.9809 16.7661 26.1856 16.6133 26.3427C16.4605 26.4997 16.2584 26.5995 16.0409 26.6253ZM26.1437 26.6253C26.0793 26.6281 26.015 26.6162 25.9558 26.5907C25.8966 26.5651 25.8439 26.5265 25.8018 26.4776C25.7408 26.4022 25.6961 26.3148 25.6707 26.2212C25.6453 26.1275 25.6396 26.0296 25.6541 25.9336C25.674 25.7154 25.7682 25.5107 25.921 25.3536C26.0738 25.1966 26.2759 25.0968 26.4934 25.071C26.5579 25.0682 26.6221 25.0801 26.6813 25.1056C26.7405 25.1312 26.7932 25.1698 26.8354 25.2187C26.8964 25.2941 26.941 25.3815 26.9664 25.4751C26.9918 25.5688 26.9975 25.6667 26.983 25.7627C26.9632 25.9809 26.869 26.1856 26.7162 26.3427C26.5634 26.4997 26.3613 26.5995 26.1437 26.6253ZM29.6409 21.1853H26.2059C26.0974 21.185 25.9902 21.1621 25.8912 21.1179C25.7922 21.0737 25.7035 21.0093 25.6308 20.9288C25.5575 20.8472 25.5022 20.751 25.4687 20.6466C25.4353 20.5421 25.4243 20.4317 25.4365 20.3227L25.693 17.9912C25.7159 17.8017 25.8078 17.6272 25.9511 17.5011C26.0944 17.3749 26.2792 17.306 26.4701 17.3073H28.2809L29.7341 20.5325L29.6409 21.1853Z" fill="#001529"/>
<path d="M11.0827 20.4078C11.2888 20.4078 11.4865 20.3259 11.6323 20.1802C11.778 20.0344 11.8599 19.8368 11.8599 19.6307C11.8599 19.4245 11.778 19.2269 11.6323 19.0811C11.4865 18.9354 11.2888 18.8535 11.0827 18.8535H10.3056C10.0995 18.8535 9.9018 18.9354 9.75606 19.0811C9.61032 19.2269 9.52844 19.4245 9.52844 19.6307C9.52844 19.8368 9.61032 20.0344 9.75606 20.1802C9.9018 20.3259 10.0995 20.4078 10.3056 20.4078H11.0827Z" fill="black"/>
</g>
<defs>
<clipPath id="clip0_414_7557">
<rect width="22.8571" height="22.8571" fill="white" transform="translate(8.97961 8.97949)"/>
</clipPath>
</defs>
</svg>
