<svg width="17" height="17" viewBox="0 0 17 17" fill="none" xmlns="http://www.w3.org/2000/svg">
<path d="M12.6103 8.59619C12.561 8.54581 12.5021 8.50574 12.4372 8.47833C12.3722 8.45092 12.3025 8.43671 12.232 8.43653C12.1615 8.43634 12.0917 8.4502 12.0266 8.47728C11.9615 8.50436 11.9024 8.54412 11.8529 8.59425C11.8033 8.64439 11.7642 8.70388 11.7379 8.76928C11.7115 8.83467 11.6985 8.90465 11.6994 8.97514C11.7004 9.04564 11.7154 9.11523 11.7436 9.17987C11.7717 9.2445 11.8124 9.30289 11.8634 9.35163C12.3141 9.79514 12.6717 10.3242 12.9152 10.9078C13.1587 11.4914 13.2831 12.1177 13.2813 12.75C13.2813 13.3998 11.4187 14.3438 8.50002 14.3438C5.58134 14.3438 3.71877 13.3992 3.71877 12.749C3.71696 12.1209 3.83976 11.4988 4.08004 10.9186C4.32033 10.3383 4.67333 9.81151 5.11862 9.36863C5.16936 9.31962 5.20983 9.261 5.23767 9.19619C5.26551 9.13137 5.28017 9.06166 5.28078 8.99112C5.2814 8.92058 5.26795 8.85063 5.24124 8.78534C5.21453 8.72005 5.17508 8.66074 5.1252 8.61086C5.07532 8.56098 5.01601 8.52153 4.95072 8.49482C4.88543 8.46811 4.81548 8.45466 4.74494 8.45528C4.6744 8.45589 4.60469 8.47055 4.53987 8.49839C4.47506 8.52623 4.41644 8.5667 4.36743 8.61744C3.82309 9.15889 3.39157 9.80295 3.09784 10.5123C2.80412 11.2217 2.65403 11.9823 2.65627 12.75C2.65627 14.4755 5.66687 15.4063 8.50002 15.4063C11.3332 15.4063 14.3438 14.4755 14.3438 12.75C14.3461 11.9771 14.194 11.2115 13.8963 10.4981C13.5986 9.78482 13.1614 9.13817 12.6103 8.59619Z" fill="#212F3B"/>
<path d="M8.5 9.03125C9.2355 9.03125 9.95448 8.81315 10.566 8.40453C11.1776 7.99591 11.6542 7.41512 11.9357 6.73561C12.2171 6.05609 12.2908 5.30838 12.1473 4.58701C12.0038 3.86564 11.6496 3.20302 11.1296 2.68295C10.6095 2.16287 9.94686 1.8087 9.22549 1.66521C8.50413 1.52172 7.75641 1.59536 7.0769 1.87682C6.39738 2.15829 5.81659 2.63493 5.40797 3.24647C4.99935 3.85802 4.78125 4.577 4.78125 5.3125C4.78237 6.29843 5.17453 7.24366 5.87169 7.94081C6.56885 8.63797 7.51407 9.03013 8.5 9.03125ZM8.5 2.65625C9.02536 2.65625 9.53892 2.81204 9.97573 3.10391C10.4126 3.39578 10.753 3.81063 10.9541 4.296C11.1551 4.78137 11.2077 5.31545 11.1052 5.83071C11.0027 6.34597 10.7497 6.81927 10.3783 7.19075C10.0068 7.56224 9.53347 7.81522 9.01821 7.91771C8.50295 8.0202 7.96886 7.9676 7.4835 7.76656C6.99813 7.56551 6.58328 7.22505 6.29141 6.78823C5.99954 6.35142 5.84375 5.83786 5.84375 5.3125C5.84459 4.60828 6.12472 3.93314 6.62268 3.43518C7.12064 2.93722 7.79578 2.6571 8.5 2.65625Z" fill="#212F3B"/>
</svg>
