<svg width="40" height="40" viewBox="0 0 40 40" fill="none" xmlns="http://www.w3.org/2000/svg">
<g id="Youtube">
<path id="Vector" d="M20 40C31.0457 40 40 31.0457 40 20C40 8.95431 31.0457 0 20 0C8.95431 0 0 8.95431 0 20C0 31.0457 8.95431 40 20 40Z" fill="#F61C0D"/>
<path id="Vector_2" d="M27.26 11.0521H12.6699C9.80737 11.0521 7.48682 13.3477 7.48682 16.1794V23.3943C7.48682 26.226 9.80737 28.5216 12.6699 28.5216H27.26C30.1226 28.5216 32.4431 26.226 32.4431 23.3943V16.1794C32.4431 13.3477 30.1226 11.0521 27.26 11.0521ZM23.7547 20.1379L16.9305 23.3576C16.7486 23.4433 16.5386 23.3122 16.5386 23.1129V16.4723C16.5386 16.2702 16.7541 16.1392 16.9364 16.2306L23.7606 19.6515C23.9635 19.7532 23.96 20.041 23.7547 20.1379Z" fill="#F2F2F2"/>
</g>
</svg>
