<svg width="40" height="40" viewBox="0 0 40 40" fill="none" xmlns="http://www.w3.org/2000/svg">
<g id="Youtube">
<path id="Vector" d="M20 40C31.0457 40 40 31.0457 40 20C40 8.95431 31.0457 0 20 0C8.95431 0 0 8.95431 0 20C0 31.0457 8.95431 40 20 40Z" fill="#E0E0E0"/>
<path id="Vector_2" d="M27.2602 11.0522H12.67C9.80749 11.0522 7.48694 13.3478 7.48694 16.1795V23.3944C7.48694 26.2261 9.80749 28.5217 12.67 28.5217H27.2602C30.1227 28.5217 32.4433 26.2261 32.4433 23.3944V16.1795C32.4433 13.3478 30.1227 11.0522 27.2602 11.0522ZM23.7549 20.138L16.9306 23.3577C16.7487 23.4435 16.5387 23.3123 16.5387 23.1131V16.4724C16.5387 16.2703 16.7543 16.1393 16.9365 16.2307L23.7608 19.6516C23.9637 19.7533 23.9601 20.0412 23.7549 20.138Z" fill="#828282"/>
</g>
</svg>
