<svg width="40" height="40" viewBox="0 0 40 40" fill="none" xmlns="http://www.w3.org/2000/svg">
<g id="Zalo">
<g id="Group 624">
<path id="Vector" d="M19.8785 39.7571C30.8571 39.7571 39.7571 30.8571 39.7571 19.8785C39.7571 8.89992 30.8571 0 19.8785 0C8.89992 0 0 8.89992 0 19.8785C0 30.8571 8.89992 39.7571 19.8785 39.7571Z" fill="#51ABFF"/>
<g id="Group">
<path id="Vector_2" d="M7.96704 23.3573C8.06798 23.3884 8.16116 23.3728 8.24658 23.3728C9.5744 23.3728 10.91 23.3728 12.2378 23.3728C12.4319 23.3728 12.6261 23.3806 12.8124 23.4272C13.255 23.5437 13.5346 23.8154 13.62 24.2658C13.6588 24.4832 13.6588 24.7084 13.5889 24.9181C13.4492 25.3684 13.1153 25.5936 12.6649 25.6635C12.5406 25.6868 12.4086 25.6946 12.2766 25.6946C10.3354 25.7023 8.40188 25.7023 6.46062 25.7101C6.15778 25.7101 5.85494 25.6868 5.55211 25.6325C4.60477 25.4539 4.30193 24.5065 4.58924 23.8387C4.69019 23.6135 4.82219 23.4117 4.97749 23.2175C6.49944 21.284 8.02139 19.3505 9.54334 17.417C9.63652 17.3006 9.7297 17.1841 9.81512 17.0676C9.885 16.9744 9.86171 16.9123 9.753 16.889C9.71417 16.8812 9.67535 16.8812 9.63652 16.8812C8.50282 16.8812 7.36136 16.8812 6.22767 16.8812C5.98695 16.8812 5.754 16.8502 5.51328 16.8036C5.02408 16.7026 4.67466 16.2989 4.65913 15.8097C4.6436 15.3049 4.9542 14.8779 5.4434 14.7381C5.69964 14.6682 5.96365 14.6371 6.22767 14.6371C8.06798 14.6371 9.9083 14.6371 11.7486 14.6371C11.9971 14.6371 12.2533 14.676 12.4941 14.7381C13.1929 14.9167 13.5346 15.5612 13.2861 16.2367C13.1929 16.493 13.0531 16.7259 12.9134 16.9589C12.7115 17.285 12.4785 17.5801 12.2378 17.8829C10.8867 19.5912 9.54334 21.2996 8.19222 23.0079C8.12234 23.1166 8.02916 23.2175 7.96704 23.3573Z" fill="#F2F2F2"/>
<path id="Vector_3" d="M19.6612 18.0305C19.7544 17.9295 19.8476 17.8208 19.9408 17.7199C20.4067 17.2229 21.1366 17.254 21.5792 17.5413C21.9364 17.7742 22.115 18.1081 22.1227 18.5352C22.1305 19.04 22.1383 19.5447 22.1383 20.0494C22.1383 21.5481 22.1305 23.0467 22.1305 24.5454C22.1305 25.1122 21.8354 25.5393 21.3307 25.7257C20.7794 25.9276 20.2669 25.8033 19.8942 25.3685C19.669 25.1122 19.6302 25.1045 19.3584 25.3141C18.7139 25.8266 17.9762 26.0829 17.1531 25.9741C15.6545 25.7878 14.5208 25.0579 13.9461 23.6058C13.5035 22.5032 13.3948 21.3539 13.6821 20.1892C13.8685 19.436 14.2645 18.7992 14.8391 18.279C15.3361 17.8286 15.9029 17.4869 16.5474 17.2851C17.3783 17.0288 18.1781 17.122 18.9391 17.5413C19.141 17.65 19.3351 17.7898 19.5137 17.9295C19.5603 17.9684 19.5913 18.0227 19.6612 18.0305ZM19.5836 21.7733C19.5836 21.0899 19.4593 20.6473 19.2419 20.2901C18.6362 19.2729 17.091 19.2496 16.4776 20.2435C15.9728 21.0589 15.9107 21.9286 16.3766 22.7827C16.695 23.3651 17.2152 23.6446 17.883 23.6291C18.5198 23.6136 18.9857 23.3107 19.2963 22.7594C19.5059 22.3867 19.5836 21.9829 19.5836 21.7733Z" fill="#F2F2F2"/>
<path id="Vector_4" d="M30.8584 26.0129C29.3908 25.9741 28.195 25.415 27.3486 24.1881C26.8905 23.5281 26.6808 22.7827 26.6575 21.9829C26.6342 21.3306 26.6808 20.6939 26.8982 20.0727C27.4107 18.5818 28.4124 17.6111 29.9732 17.2928C31.0525 17.0676 32.1008 17.1996 33.0715 17.7199C34.275 18.3566 34.9506 19.3816 35.1836 20.7094C35.3389 21.6101 35.2767 22.5031 34.9428 23.3573C34.3838 24.7783 33.3277 25.6014 31.8523 25.9197C31.5185 25.9741 31.1923 26.0052 30.8584 26.0129ZM30.773 23.6291C31.5806 23.6291 32.1474 23.3029 32.427 22.7283C32.7997 21.9596 32.7919 21.1831 32.4192 20.4221C32.3183 20.2124 32.1707 20.0338 31.9844 19.8863C31.3088 19.3195 30.0509 19.4049 29.4995 20.36C29.3132 20.6783 29.2278 21.0278 29.2045 21.3927C29.1656 21.9285 29.2666 22.4332 29.5617 22.8914C29.88 23.3728 30.3459 23.6135 30.773 23.6291Z" fill="#F2F2F2"/>
<path id="Vector_5" d="M23.2332 19.7466C23.2332 18.2169 23.2332 16.6871 23.2332 15.1574C23.2332 15.0177 23.2332 14.8701 23.2642 14.7303C23.3962 14.0781 23.901 13.7054 24.592 13.752C25.3142 13.7985 25.7646 14.28 25.7646 15.0099C25.7723 16.2212 25.7646 17.4403 25.7646 18.6517C25.7646 20.593 25.7646 22.5265 25.7646 24.4677C25.7646 24.7084 25.718 24.9259 25.6093 25.1355C25.322 25.6791 24.6852 25.9508 24.0951 25.7878C23.8699 25.7257 23.6913 25.5936 23.5438 25.415C23.3652 25.1899 23.2564 24.9259 23.2409 24.6308C23.2332 24.5298 23.2332 24.4211 23.2332 24.3202C23.2332 22.7905 23.2332 21.2685 23.2332 19.7466Z" fill="#F2F2F2"/>
</g>
</g>
</g>
</svg>
