<svg width="40" height="40" viewBox="0 0 40 40" fill="none" xmlns="http://www.w3.org/2000/svg">
<g id="Zalo">
<g id="Group 624">
<path id="Vector" d="M19.8785 39.7571C30.8571 39.7571 39.7571 30.8571 39.7571 19.8785C39.7571 8.89992 30.8571 0 19.8785 0C8.89992 0 0 8.89992 0 19.8785C0 30.8571 8.89992 39.7571 19.8785 39.7571Z" fill="#E0E0E0"/>
<g id="Group">
<path id="Vector_2" d="M7.96691 23.3574C8.06786 23.3884 8.16104 23.3729 8.24646 23.3729C9.57428 23.3729 10.9099 23.3729 12.2377 23.3729C12.4318 23.3729 12.6259 23.3807 12.8123 23.4272C13.2549 23.5437 13.5345 23.8155 13.6199 24.2659C13.6587 24.4833 13.6587 24.7085 13.5888 24.9181C13.449 25.3685 13.1151 25.5937 12.6648 25.6636C12.5405 25.6869 12.4085 25.6946 12.2765 25.6946C10.3353 25.7024 8.40176 25.7024 6.46049 25.7102C6.15766 25.7102 5.85482 25.6869 5.55198 25.6325C4.60465 25.4539 4.30181 24.5066 4.58912 23.8388C4.69006 23.6136 4.82207 23.4117 4.97737 23.2176C6.49932 21.2841 8.02127 19.3506 9.54322 17.4171C9.6364 17.3006 9.72958 17.1841 9.815 17.0677C9.88488 16.9745 9.86159 16.9124 9.75287 16.8891C9.71405 16.8813 9.67522 16.8813 9.6364 16.8813C8.5027 16.8813 7.36124 16.8813 6.22754 16.8813C5.98683 16.8813 5.75388 16.8502 5.51316 16.8037C5.02396 16.7027 4.67453 16.2989 4.659 15.8097C4.64347 15.305 4.95408 14.8779 5.44327 14.7382C5.69952 14.6683 5.96353 14.6372 6.22754 14.6372C8.06786 14.6372 9.90818 14.6372 11.7485 14.6372C11.997 14.6372 12.2532 14.676 12.4939 14.7382C13.1928 14.9167 13.5345 15.5612 13.286 16.2368C13.1928 16.4931 13.053 16.726 12.9132 16.959C12.7114 17.2851 12.4784 17.5802 12.2377 17.883C10.8866 19.5913 9.54322 21.2996 8.1921 23.0079C8.12222 23.1166 8.02903 23.2176 7.96691 23.3574Z" fill="#828282"/>
<path id="Vector_3" d="M19.6611 18.0306C19.7543 17.9297 19.8475 17.821 19.9406 17.72C20.4065 17.2231 21.1365 17.2541 21.5791 17.5414C21.9363 17.7744 22.1149 18.1083 22.1226 18.5353C22.1304 19.0401 22.1382 19.5448 22.1382 20.0495C22.1382 21.5482 22.1304 23.0468 22.1304 24.5455C22.1304 25.1123 21.8353 25.5394 21.3306 25.7258C20.7793 25.9277 20.2668 25.8034 19.8941 25.3686C19.6689 25.1123 19.63 25.1046 19.3583 25.3142C18.7138 25.8267 17.9761 26.083 17.153 25.9743C15.6543 25.7879 14.5206 25.058 13.946 23.6059C13.5034 22.5033 13.3947 21.3541 13.682 20.1893C13.8684 19.4361 14.2644 18.7994 14.839 18.2791C15.336 17.8287 15.9028 17.4871 16.5473 17.2852C17.3782 17.0289 18.178 17.1221 18.9389 17.5414C19.1408 17.6501 19.335 17.7899 19.5136 17.9297C19.5602 17.9685 19.5912 18.0229 19.6611 18.0306ZM19.5834 21.7734C19.5834 21.09 19.4592 20.6474 19.2418 20.2902C18.6361 19.273 17.0909 19.2497 16.4774 20.2437C15.9727 21.059 15.9106 21.9287 16.3765 22.7828C16.6949 23.3652 17.2151 23.6448 17.8829 23.6292C18.5196 23.6137 18.9855 23.3109 19.2961 22.7595C19.5058 22.3868 19.5834 21.983 19.5834 21.7734Z" fill="#828282"/>
<path id="Vector_4" d="M30.8583 26.0132C29.3907 25.9743 28.1949 25.4153 27.3485 24.1884C26.8904 23.5283 26.6807 22.7829 26.6574 21.9831C26.6341 21.3308 26.6807 20.6941 26.8981 20.0729C27.4106 18.582 28.4123 17.6114 29.9731 17.293C31.0524 17.0678 32.1007 17.1998 33.0713 17.7201C34.2749 18.3568 34.9505 19.3818 35.1834 20.7096C35.3387 21.6104 35.2766 22.5034 34.9427 23.3575C34.3836 24.7785 33.3276 25.6016 31.8522 25.92C31.5183 25.9743 31.1922 26.0054 30.8583 26.0132ZM30.7729 23.6293C31.5804 23.6293 32.1473 23.3032 32.4268 22.7286C32.7996 21.9598 32.7918 21.1833 32.4191 20.4223C32.3181 20.2127 32.1706 20.0341 31.9842 19.8865C31.3087 19.3197 30.0507 19.4051 29.4994 20.3602C29.3131 20.6786 29.2276 21.028 29.2043 21.393C29.1655 21.9288 29.2665 22.4335 29.5615 22.8916C29.8799 23.373 30.3458 23.6138 30.7729 23.6293Z" fill="#828282"/>
<path id="Vector_5" d="M23.233 19.7466C23.233 18.2169 23.233 16.6871 23.233 15.1574C23.233 15.0177 23.233 14.8701 23.2641 14.7303C23.3961 14.0781 23.9008 13.7054 24.5919 13.752C25.3141 13.7985 25.7644 14.28 25.7644 15.0099C25.7722 16.2212 25.7644 17.4403 25.7644 18.6517C25.7644 20.593 25.7644 22.5265 25.7644 24.4677C25.7644 24.7084 25.7179 24.9259 25.6091 25.1355C25.3218 25.6791 24.6851 25.9508 24.095 25.7878C23.8698 25.7257 23.6912 25.5936 23.5436 25.415C23.365 25.1899 23.2563 24.9259 23.2408 24.6308C23.233 24.5298 23.233 24.4211 23.233 24.3202C23.233 22.7905 23.233 21.2685 23.233 19.7466Z" fill="#828282"/>
</g>
</g>
</g>
</svg>
